<svg xmlns="http://www.w3.org/2000/svg" xmlns:xlink="http://www.w3.org/1999/xlink" width="1200" zoomAndPan="magnify" viewBox="0 0 900 599.999999" height="800" preserveAspectRatio="xMidYMid meet" version="1.0"><defs><clipPath id="b74a77f762"><path d="M 411 50.566406 L 569 50.566406 L 569 234 L 411 234 Z M 411 50.566406 " clip-rule="nonzero"/></clipPath><clipPath id="c286e84fcc"><path d="M 520 50.566406 L 732 50.566406 L 732 188 L 520 188 Z M 520 50.566406 " clip-rule="nonzero"/></clipPath><clipPath id="9a65e6be26"><path d="M 113.761719 228 L 786.511719 228 L 786.511719 549.316406 L 113.761719 549.316406 Z M 113.761719 228 " clip-rule="nonzero"/></clipPath></defs><path fill="#f2dcd1" d="M 769.941406 87.082031 L 769.941406 307.046875 C 769.941406 315.5 763.085938 322.347656 754.636719 322.347656 L 377.871094 322.347656 C 369.421875 322.347656 362.566406 315.5 362.566406 307.046875 L 362.566406 87.082031 C 362.566406 78.625 369.421875 71.78125 377.871094 71.78125 L 754.636719 71.78125 C 763.082031 71.78125 769.941406 78.625 769.941406 87.082031 Z M 769.941406 87.082031 " fill-opacity="1" fill-rule="nonzero"/><path fill="#e0e887" d="M 769.941406 87.082031 L 769.941406 91.65625 L 362.566406 91.65625 L 362.566406 87.082031 C 362.566406 78.625 369.421875 71.78125 377.871094 71.78125 L 754.636719 71.78125 C 763.082031 71.78125 769.941406 78.625 769.941406 87.082031 Z M 769.941406 87.082031 " fill-opacity="1" fill-rule="nonzero"/><path fill="#000000" d="M 558.675781 100.175781 L 558.675781 235.242188 C 558.675781 238.746094 555.839844 241.582031 552.335938 241.582031 L 408.300781 241.582031 C 404.796875 241.582031 401.957031 238.746094 401.957031 235.242188 L 401.957031 65.429688 C 401.957031 61.925781 404.796875 59.089844 408.300781 59.089844 L 510.542969 59.089844 Z M 534.226562 291.734375 C 534.101562 291.984375 534.101562 292.171875 534.292969 292.425781 C 535.546875 293.996094 536.804688 295.503906 538 297.011719 C 536.050781 298.960938 534.101562 300.910156 532.089844 302.921875 C 530.960938 302.042969 529.765625 301.035156 528.507812 300.03125 C 528.132812 299.714844 527.753906 299.402344 527.375 299.152344 C 527.25 299.085938 527 299.023438 526.875 299.085938 C 525.492188 299.652344 524.171875 300.21875 522.851562 300.722656 C 522.601562 300.785156 522.535156 300.910156 522.472656 301.160156 C 522.285156 303.046875 522.097656 304.933594 521.910156 306.757812 C 521.910156 306.882812 521.84375 307.070312 521.84375 307.195312 C 519.207031 307.449219 516.441406 307.449219 513.675781 307.449219 C 513.421875 305.375 513.234375 303.425781 513.046875 301.414062 C 513.046875 301.097656 512.917969 301.035156 512.605469 300.910156 C 511.285156 300.40625 510.027344 299.84375 508.769531 299.339844 C 508.519531 299.214844 508.332031 299.152344 508.078125 299.402344 C 506.570312 300.660156 505 301.917969 503.492188 303.109375 C 501.542969 301.160156 499.59375 299.214844 497.582031 297.203125 C 498.023438 296.636719 498.527344 296.007812 499.027344 295.378906 C 499.78125 294.4375 500.535156 293.492188 501.292969 292.488281 C 501.417969 292.363281 501.417969 292.109375 501.355469 291.921875 C 500.789062 290.539062 500.285156 289.21875 499.65625 287.898438 C 499.59375 287.773438 499.40625 287.585938 499.28125 287.585938 C 497.457031 287.394531 495.570312 287.207031 493.75 286.957031 C 493.558594 286.957031 493.433594 286.894531 493.246094 286.894531 C 493.246094 284.128906 493.246094 281.363281 493.246094 278.597656 C 494.816406 278.40625 496.386719 278.28125 497.960938 278.09375 C 498.460938 278.03125 499.089844 278.15625 499.46875 277.90625 C 499.78125 277.652344 499.84375 277.023438 500.035156 276.523438 C 500.472656 275.578125 500.851562 274.574219 501.355469 273.628906 C 501.480469 273.378906 501.480469 273.191406 501.292969 272.9375 C 500.035156 271.429688 498.777344 269.859375 497.582031 268.351562 C 499.53125 266.402344 501.480469 264.453125 503.492188 262.441406 C 504.621094 263.386719 505.816406 264.328125 507.011719 265.269531 C 507.324219 265.523438 507.640625 265.710938 507.890625 265.960938 C 508.269531 266.402344 508.519531 266.277344 508.960938 266.089844 C 510.21875 265.523438 511.410156 265.019531 512.667969 264.578125 C 512.917969 264.515625 512.984375 264.390625 512.984375 264.140625 C 513.171875 262.128906 513.421875 260.117188 513.609375 258.105469 C 516.378906 258.105469 519.144531 258.105469 521.910156 258.105469 C 522.035156 259.363281 522.160156 260.554688 522.285156 261.75 C 522.347656 262.503906 522.472656 263.324219 522.535156 264.078125 C 522.535156 264.390625 522.664062 264.453125 522.914062 264.515625 C 524.234375 265.019531 525.554688 265.648438 526.9375 266.152344 C 527.0625 266.214844 527.378906 266.152344 527.503906 266.089844 C 528.949219 264.957031 530.394531 263.761719 531.839844 262.628906 C 531.964844 262.503906 532.089844 262.441406 532.21875 262.316406 C 534.164062 264.265625 536.113281 266.214844 538.0625 268.226562 C 537.058594 269.480469 535.988281 270.800781 534.984375 272.058594 C 534.667969 272.4375 534.226562 272.75 534.164062 273.128906 C 534.101562 273.503906 534.542969 273.882812 534.667969 274.320312 C 535.046875 275.328125 535.484375 276.398438 535.863281 277.402344 C 535.988281 277.652344 536.050781 277.84375 536.367188 277.84375 C 538.375 278.03125 540.324219 278.28125 542.335938 278.472656 C 542.335938 281.238281 542.335938 284.003906 542.335938 286.769531 C 540.640625 286.957031 538.941406 287.144531 537.183594 287.332031 C 535.988281 287.460938 536.050781 287.460938 535.609375 288.527344 C 535.171875 289.597656 534.667969 290.664062 534.226562 291.734375 Z M 530.078125 282.871094 C 530.144531 276.144531 524.675781 270.675781 518.074219 270.550781 C 511.160156 270.425781 505.691406 276.019531 505.566406 282.554688 C 505.441406 289.535156 511.035156 294.875 517.445312 295.066406 C 524.484375 295.253906 530.078125 289.597656 530.078125 282.871094 Z M 530.078125 282.871094 " fill-opacity="1" fill-rule="nonzero"/><path fill="#000000" d="M 330.460938 263.558594 L 330.460938 286.199219 C 330.460938 293.5 325.207031 299.566406 318.273438 300.84375 L 318.273438 333.226562 L 245.613281 333.226562 C 241.476562 333.226562 238.125 329.875 238.125 325.742188 L 238.125 289.679688 C 238.125 265.894531 257.410156 246.613281 281.195312 246.613281 L 311.261719 246.613281 C 315.136719 246.613281 318.273438 249.753906 318.273438 253.625 L 318.273438 254.191406 L 321.09375 254.191406 C 326.269531 254.191406 330.460938 258.382812 330.460938 263.558594 Z M 330.460938 263.558594 " fill-opacity="1" fill-rule="nonzero"/><g clip-path="url(#b74a77f762)"><path fill="#e0e887" d="M 568.144531 91.652344 L 568.144531 226.71875 C 568.144531 230.222656 565.308594 233.058594 561.804688 233.058594 L 417.769531 233.058594 C 414.265625 233.058594 411.429688 230.222656 411.429688 226.71875 L 411.429688 56.90625 C 411.429688 53.40625 414.265625 50.566406 417.769531 50.566406 L 520.015625 50.566406 Z M 568.144531 91.652344 " fill-opacity="1" fill-rule="nonzero"/></g><path fill="#000000" d="M 721.707031 195.683594 L 721.707031 330.75 C 721.707031 334.253906 718.871094 337.089844 715.367188 337.089844 L 571.332031 337.089844 C 567.828125 337.089844 564.992188 334.253906 564.992188 330.75 L 564.992188 160.9375 C 564.992188 157.433594 567.828125 154.597656 571.332031 154.597656 L 673.574219 154.597656 Z M 612.425781 124.726562 C 612.34375 124.890625 612.34375 125.015625 612.46875 125.179688 C 613.292969 126.210938 614.113281 127.195312 614.894531 128.183594 C 613.621094 129.460938 612.34375 130.734375 611.027344 132.050781 C 610.289062 131.476562 609.507812 130.816406 608.683594 130.160156 C 608.4375 129.953125 608.1875 129.746094 607.941406 129.582031 C 607.859375 129.542969 607.695312 129.5 607.613281 129.542969 C 606.707031 129.910156 605.84375 130.28125 604.980469 130.613281 C 604.816406 130.652344 604.773438 130.734375 604.734375 130.898438 C 604.609375 132.132812 604.488281 133.367188 604.363281 134.5625 C 604.363281 134.644531 604.324219 134.765625 604.324219 134.851562 C 602.59375 135.015625 600.785156 135.015625 598.972656 135.015625 C 598.808594 133.65625 598.683594 132.382812 598.5625 131.0625 C 598.5625 130.859375 598.480469 130.816406 598.273438 130.734375 C 597.410156 130.40625 596.585938 130.035156 595.765625 129.707031 C 595.597656 129.625 595.476562 129.582031 595.3125 129.746094 C 594.324219 130.570312 593.292969 131.394531 592.308594 132.175781 C 591.03125 130.898438 589.757812 129.625 588.441406 128.308594 C 588.730469 127.9375 589.058594 127.527344 589.386719 127.113281 C 589.878906 126.496094 590.375 125.878906 590.867188 125.222656 C 590.949219 125.140625 590.949219 124.976562 590.910156 124.851562 C 590.539062 123.945312 590.210938 123.082031 589.796875 122.21875 C 589.757812 122.136719 589.632812 122.011719 589.550781 122.011719 C 588.359375 121.890625 587.125 121.765625 585.929688 121.601562 C 585.808594 121.601562 585.726562 121.5625 585.601562 121.5625 C 585.601562 119.75 585.601562 117.941406 585.601562 116.128906 C 586.632812 116.003906 587.660156 115.925781 588.6875 115.800781 C 589.015625 115.757812 589.429688 115.839844 589.675781 115.675781 C 589.882812 115.511719 589.921875 115.101562 590.046875 114.773438 C 590.335938 114.152344 590.582031 113.496094 590.910156 112.878906 C 590.992188 112.714844 590.992188 112.589844 590.871094 112.425781 C 590.046875 111.4375 589.222656 110.410156 588.441406 109.421875 C 589.71875 108.148438 590.992188 106.871094 592.308594 105.554688 C 593.050781 106.171875 593.832031 106.789062 594.613281 107.40625 C 594.816406 107.570312 595.023438 107.695312 595.1875 107.859375 C 595.433594 108.148438 595.597656 108.066406 595.886719 107.941406 C 596.710938 107.570312 597.492188 107.242188 598.316406 106.953125 C 598.480469 106.914062 598.519531 106.832031 598.519531 106.664062 C 598.644531 105.347656 598.808594 104.03125 598.933594 102.714844 C 600.742188 102.714844 602.550781 102.714844 604.363281 102.714844 C 604.445312 103.539062 604.527344 104.320312 604.609375 105.101562 C 604.652344 105.597656 604.734375 106.132812 604.773438 106.625 C 604.773438 106.832031 604.855469 106.871094 605.019531 106.914062 C 605.886719 107.242188 606.75 107.652344 607.652344 107.984375 C 607.734375 108.023438 607.941406 107.984375 608.023438 107.941406 C 608.96875 107.203125 609.917969 106.417969 610.863281 105.679688 C 610.945312 105.597656 611.027344 105.554688 611.109375 105.472656 C 612.386719 106.75 613.660156 108.023438 614.9375 109.339844 C 614.277344 110.164062 613.578125 111.027344 612.921875 111.851562 C 612.714844 112.097656 612.425781 112.304688 612.386719 112.550781 C 612.34375 112.796875 612.632812 113.042969 612.714844 113.332031 C 612.960938 113.992188 613.25 114.691406 613.496094 115.347656 C 613.578125 115.515625 613.621094 115.636719 613.824219 115.636719 C 615.140625 115.761719 616.417969 115.925781 617.734375 116.046875 C 617.734375 117.859375 617.734375 119.667969 617.734375 121.480469 C 616.625 121.605469 615.511719 121.726562 614.359375 121.851562 C 613.578125 121.933594 613.621094 121.933594 613.332031 122.632812 C 613.042969 123.328125 612.714844 124.027344 612.425781 124.726562 Z M 609.710938 118.925781 C 609.753906 114.523438 606.171875 110.945312 601.851562 110.863281 C 597.328125 110.78125 593.746094 114.441406 593.664062 118.722656 C 593.582031 123.289062 597.242188 126.785156 601.441406 126.910156 C 606.050781 127.03125 609.710938 123.328125 609.710938 118.925781 Z M 609.710938 118.925781 " fill-opacity="1" fill-rule="nonzero"/><path fill="#a4ced1" d="M 500.984375 139.710938 L 423.875 139.710938 L 423.875 128.269531 L 500.984375 128.269531 Z M 555.699219 128.269531 L 510.222656 128.269531 L 510.222656 139.710938 L 555.699219 139.710938 Z M 500.984375 146.179688 L 423.875 146.179688 L 423.875 157.617188 L 500.984375 157.617188 Z M 555.699219 146.179688 L 510.222656 146.179688 L 510.222656 157.617188 L 555.699219 157.617188 Z M 500.984375 164.085938 L 423.875 164.085938 L 423.875 175.527344 L 500.984375 175.527344 Z M 555.699219 164.085938 L 510.222656 164.085938 L 510.222656 175.527344 L 555.699219 175.527344 Z M 500.984375 181.992188 L 423.875 181.992188 L 423.875 193.433594 L 500.984375 193.433594 Z M 555.699219 181.992188 L 510.222656 181.992188 L 510.222656 193.433594 L 555.699219 193.433594 Z M 500.6875 90.769531 L 500.6875 76.679688 C 500.6875 71.878906 496.796875 67.988281 492 67.988281 L 432.566406 67.988281 C 427.765625 67.988281 423.875 71.878906 423.875 76.679688 L 423.875 90.769531 C 423.875 95.566406 427.765625 99.457031 432.566406 99.457031 L 492 99.457031 C 496.796875 99.457031 500.6875 95.566406 500.6875 90.769531 Z M 500.6875 90.769531 " fill-opacity="1" fill-rule="nonzero"/><path fill="#a4ced1" d="M 358.523438 517.273438 C 358.523438 522.132812 358.523438 526.988281 358.523438 531.847656 C 332.921875 535 307.324219 538.152344 281.722656 541.300781 C 245.652344 538.152344 209.585938 535 173.515625 531.847656 C 166.964844 531.847656 161.65625 526.539062 161.65625 519.988281 L 161.65625 442.761719 C 161.65625 405.15625 192.140625 374.667969 229.75 374.667969 L 302.722656 374.667969 C 333.539062 374.667969 358.523438 399.652344 358.523438 430.472656 C 358.523438 442.671875 358.523438 454.875 358.523438 467.074219 C 368.941406 474.367188 379.355469 481.660156 389.769531 488.953125 Z M 609.933594 351.273438 C 609.933594 346.707031 606.234375 343.003906 601.667969 343.003906 C 597.101562 343.003906 593.402344 346.707031 593.402344 351.273438 C 593.402344 355.179688 596.117188 358.449219 599.761719 359.308594 L 599.761719 378.265625 L 455.757812 378.265625 L 455.757812 397.117188 C 452.105469 397.976562 449.386719 401.246094 449.386719 405.160156 C 449.386719 409.722656 453.085938 413.425781 457.652344 413.425781 C 462.21875 413.425781 465.917969 409.722656 465.917969 405.160156 C 465.917969 401.246094 463.199219 397.976562 459.546875 397.117188 L 459.546875 382.054688 L 603.546875 382.054688 L 603.546875 359.316406 C 607.207031 358.464844 609.933594 355.191406 609.933594 351.273438 Z M 688.925781 499.496094 L 562.179688 499.496094 L 562.179688 531.847656 L 688.925781 531.847656 Z M 688.925781 499.496094 " fill-opacity="1" fill-rule="nonzero"/><path fill="#000000" d="M 391.148438 422.605469 L 357.410156 518.28125 L 282.679688 518.28125 L 282.679688 531.847656 C 295.894531 532.175781 309.429688 532.328125 323.265625 532.269531 C 333.214844 532.230469 343.003906 532.085938 352.628906 531.847656 C 360.21875 531.847656 367.808594 531.847656 375.398438 531.847656 L 493.492188 531.847656 L 528.960938 422.605469 Z M 631.808594 524.09375 L 571.601562 524.09375 L 571.601562 507.25 L 631.808594 507.25 Z M 645.335938 474.902344 L 585.125 474.902344 L 585.125 491.746094 L 645.335938 491.746094 Z M 645.335938 474.902344 " fill-opacity="1" fill-rule="nonzero"/><path fill="#f2dcd1" d="M 282.679688 499.496094 C 286.570312 500.382812 290.105469 500.953125 293.257812 501.328125 C 306.984375 502.964844 321.472656 504.46875 323.96875 512.011719 C 324.789062 514.492188 324.058594 516.980469 323.34375 518.65625 C 309.789062 518.738281 296.234375 518.820312 282.679688 518.902344 C 282.679688 512.433594 282.679688 505.964844 282.679688 499.496094 Z M 309.746094 266.328125 L 299.285156 266.328125 C 296.070312 266.328125 292.941406 267.398438 290.386719 269.625 C 289.890625 270.117188 289.398438 270.613281 288.902344 271.191406 C 285.277344 275.722656 285.113281 281.652344 285.441406 287.914062 C 285.855469 295.90625 286.925781 304.472656 282.394531 311.230469 C 280.828125 313.617188 277.945312 316.667969 272.425781 318.5625 C 272.34375 312.136719 267.8125 306.945312 262.210938 306.863281 C 256.527344 306.699219 251.582031 311.96875 251.582031 318.5625 L 251.582031 380.019531 C 260.222656 383.917969 268.863281 387.820312 277.5 391.71875 C 285.777344 387.820312 294.054688 383.917969 302.332031 380.019531 C 302.332031 370.492188 302.332031 360.960938 302.332031 351.433594 L 302.746094 351.433594 C 312.710938 351.433594 320.785156 342.289062 320.785156 331.085938 L 320.785156 278.6875 C 320.789062 271.847656 315.84375 266.328125 309.746094 266.328125 Z M 309.746094 266.328125 " fill-opacity="1" fill-rule="nonzero"/><g clip-path="url(#c286e84fcc)"><path fill="#0097b2" d="M 568.144531 91.652344 L 520.015625 91.652344 L 520.015625 50.566406 Z M 731.179688 187.164062 L 683.046875 187.164062 L 683.046875 146.074219 Z M 731.179688 187.164062 " fill-opacity="1" fill-rule="nonzero"/></g><path fill="#e0e887" d="M 731.179688 187.164062 L 731.179688 322.226562 C 731.179688 325.730469 728.339844 328.570312 724.835938 328.570312 L 580.800781 328.570312 C 577.296875 328.570312 574.460938 325.730469 574.460938 322.226562 L 574.460938 152.414062 C 574.460938 148.914062 577.296875 146.074219 580.800781 146.074219 L 683.046875 146.074219 Z M 701.203125 467.148438 L 574.460938 467.148438 L 574.460938 499.496094 L 701.203125 499.496094 Z M 449.382812 466.378906 C 443.277344 466.378906 438.324219 471.332031 438.324219 477.441406 C 438.324219 483.550781 443.277344 488.503906 449.382812 488.503906 C 455.492188 488.503906 460.445312 483.550781 460.445312 477.441406 C 460.445312 471.332031 455.492188 466.378906 449.382812 466.378906 Z M 449.382812 466.378906 " fill-opacity="1" fill-rule="nonzero"/><path fill="#a4ced1" d="M 659.433594 179.277344 L 659.433594 230.476562 L 589.839844 230.476562 L 589.839844 179.277344 Z M 616.648438 258.527344 C 602.578125 258.527344 591.179688 269.933594 591.179688 284.003906 C 591.179688 298.070312 602.578125 309.46875 616.648438 309.46875 C 630.714844 309.46875 642.121094 298.070312 642.121094 284.003906 C 642.121094 269.933594 630.714844 258.527344 616.648438 258.527344 Z M 696.414062 277.433594 L 657.863281 277.433594 C 656.824219 277.433594 655.984375 276.59375 655.984375 275.558594 L 655.984375 273.886719 C 655.984375 272.847656 656.824219 272.007812 657.863281 272.007812 L 696.414062 272.007812 C 697.449219 272.007812 698.289062 272.847656 698.289062 273.886719 L 698.289062 275.558594 C 698.289062 276.59375 697.449219 277.433594 696.414062 277.433594 Z M 679.460938 288.203125 L 657.863281 288.203125 C 656.824219 288.203125 655.984375 287.363281 655.984375 286.324219 L 655.984375 284.652344 C 655.984375 283.617188 656.824219 282.777344 657.863281 282.777344 L 679.460938 282.777344 C 680.5 282.777344 681.339844 283.617188 681.339844 284.652344 L 681.339844 286.324219 C 681.339844 287.363281 680.5 288.203125 679.460938 288.203125 Z M 698.140625 298.96875 L 657.863281 298.96875 C 656.824219 298.96875 655.984375 298.128906 655.984375 297.09375 L 655.984375 295.421875 C 655.984375 294.382812 656.824219 293.542969 657.863281 293.542969 L 698.140625 293.542969 C 699.175781 293.542969 700.015625 294.382812 700.015625 295.421875 L 700.015625 297.09375 C 700.015625 298.128906 699.175781 298.96875 698.140625 298.96875 Z M 686.816406 256.027344 L 677.136719 256.027344 L 677.136719 208.496094 L 686.816406 208.496094 Z M 702.660156 255.769531 L 692.984375 255.769531 L 692.984375 198.148438 L 702.660156 198.148438 Z M 719.007812 255.769531 L 709.332031 255.769531 L 709.332031 213.136719 L 719.007812 213.136719 Z M 719.007812 255.769531 " fill-opacity="1" fill-rule="nonzero"/><path fill="#000000" d="M 302.34375 307.152344 C 290.269531 317.695312 276.464844 318.476562 272.425781 318.558594 C 272.425781 304.25 272.425781 289.9375 272.425781 275.628906 L 282.683594 254.191406 L 309.488281 254.191406 C 312.417969 259.738281 315.347656 265.285156 318.273438 270.832031 C 318.308594 273.765625 318.210938 293.300781 302.34375 307.152344 Z M 659.433594 184.636719 L 659.433594 230.476562 L 589.839844 230.476562 L 589.839844 224.679688 C 595.796875 220.960938 601.753906 217.238281 607.710938 213.515625 L 629.527344 213.515625 Z M 664.648438 184.464844 L 664.648438 185.914062 C 664.648438 186.140625 664.460938 186.332031 664.230469 186.332031 C 664.003906 186.332031 663.816406 186.140625 663.816406 185.914062 L 663.816406 184.464844 C 663.816406 184.238281 664.003906 184.058594 664.230469 184.058594 C 664.460938 184.058594 664.648438 184.238281 664.648438 184.464844 Z M 664.648438 218.414062 L 664.648438 221.367188 C 664.648438 221.59375 664.460938 221.785156 664.230469 221.785156 C 664.003906 221.785156 663.816406 221.59375 663.816406 221.367188 L 663.816406 218.414062 C 663.816406 218.183594 664.003906 218.003906 664.230469 218.003906 C 664.460938 218.003906 664.648438 218.183594 664.648438 218.414062 Z M 664.648438 224.320312 L 664.648438 227.273438 C 664.648438 227.503906 664.460938 227.691406 664.230469 227.691406 C 664.003906 227.691406 663.816406 227.503906 663.816406 227.273438 L 663.816406 224.320312 C 663.816406 224.09375 664.003906 223.914062 664.230469 223.914062 C 664.460938 223.914062 664.648438 224.09375 664.648438 224.320312 Z M 664.648438 230.230469 L 664.648438 233.183594 C 664.648438 233.414062 664.460938 233.601562 664.230469 233.601562 C 664.003906 233.601562 663.816406 233.414062 663.816406 233.183594 L 663.816406 230.230469 C 663.816406 230.003906 664.003906 229.824219 664.230469 229.824219 C 664.460938 229.824219 664.648438 230.003906 664.648438 230.230469 Z M 664.648438 212.503906 L 664.648438 215.457031 C 664.648438 215.6875 664.460938 215.875 664.230469 215.875 C 664.003906 215.875 663.816406 215.6875 663.816406 215.457031 L 663.816406 212.503906 C 663.816406 212.277344 664.003906 212.085938 664.230469 212.085938 C 664.460938 212.085938 664.648438 212.277344 664.648438 212.503906 Z M 664.648438 194.777344 L 664.648438 197.730469 C 664.648438 197.957031 664.460938 198.148438 664.230469 198.148438 C 664.003906 198.148438 663.816406 197.957031 663.816406 197.730469 L 663.816406 194.777344 C 663.816406 194.550781 664.003906 194.359375 664.230469 194.359375 C 664.460938 194.359375 664.648438 194.550781 664.648438 194.777344 Z M 664.648438 188.867188 L 664.648438 191.820312 C 664.648438 192.050781 664.460938 192.238281 664.230469 192.238281 C 664.003906 192.238281 663.816406 192.050781 663.816406 191.820312 L 663.816406 188.867188 C 663.816406 188.640625 664.003906 188.449219 664.230469 188.449219 C 664.460938 188.449219 664.648438 188.640625 664.648438 188.867188 Z M 664.648438 200.6875 L 664.648438 203.640625 C 664.648438 203.867188 664.460938 204.058594 664.230469 204.058594 C 664.003906 204.058594 663.816406 203.867188 663.816406 203.640625 L 663.816406 200.6875 C 663.816406 200.457031 664.003906 200.269531 664.230469 200.269531 C 664.460938 200.269531 664.648438 200.457031 664.648438 200.6875 Z M 664.648438 206.59375 L 664.648438 209.546875 C 664.648438 209.777344 664.460938 209.964844 664.230469 209.964844 C 664.003906 209.964844 663.816406 209.777344 663.816406 209.546875 L 663.816406 206.59375 C 663.816406 206.367188 664.003906 206.175781 664.230469 206.175781 C 664.460938 206.175781 664.648438 206.367188 664.648438 206.59375 Z M 664.648438 236.140625 L 664.648438 237.585938 C 664.648438 237.816406 664.460938 238.003906 664.230469 238.003906 L 662.785156 238.003906 C 662.554688 238.003906 662.367188 237.816406 662.367188 237.585938 C 662.367188 237.359375 662.554688 237.171875 662.785156 237.171875 L 663.816406 237.171875 L 663.816406 236.140625 C 663.816406 235.910156 664.003906 235.730469 664.230469 235.730469 C 664.460938 235.730469 664.648438 235.910156 664.648438 236.140625 Z M 614.859375 237.585938 C 614.859375 237.816406 614.679688 238.003906 614.453125 238.003906 L 611.601562 238.003906 C 611.375 238.003906 611.195312 237.816406 611.195312 237.585938 C 611.195312 237.359375 611.375 237.171875 611.601562 237.171875 L 614.453125 237.171875 C 614.679688 237.171875 614.859375 237.359375 614.859375 237.585938 Z M 620.550781 237.585938 C 620.550781 237.816406 620.359375 238.003906 620.132812 238.003906 L 617.292969 238.003906 C 617.066406 238.003906 616.875 237.816406 616.875 237.585938 C 616.875 237.359375 617.066406 237.171875 617.292969 237.171875 L 620.132812 237.171875 C 620.359375 237.171875 620.550781 237.359375 620.550781 237.585938 Z M 603.488281 237.585938 C 603.488281 237.816406 603.308594 238.003906 603.078125 238.003906 L 600.230469 238.003906 C 600 238.003906 599.820312 237.816406 599.820312 237.585938 C 599.820312 237.359375 600 237.171875 600.230469 237.171875 L 603.078125 237.171875 C 603.308594 237.171875 603.488281 237.359375 603.488281 237.585938 Z M 597.804688 237.585938 C 597.804688 237.816406 597.617188 238.003906 597.386719 238.003906 L 594.546875 238.003906 C 594.320312 238.003906 594.132812 237.816406 594.132812 237.585938 C 594.132812 237.359375 594.320312 237.171875 594.546875 237.171875 L 597.386719 237.171875 C 597.617188 237.171875 597.804688 237.359375 597.804688 237.585938 Z M 609.175781 237.585938 C 609.175781 237.816406 608.988281 238.003906 608.761719 238.003906 L 605.921875 238.003906 C 605.691406 238.003906 605.503906 237.816406 605.503906 237.585938 C 605.503906 237.359375 605.691406 237.171875 605.921875 237.171875 L 608.761719 237.171875 C 608.988281 237.171875 609.175781 237.359375 609.175781 237.585938 Z M 626.230469 237.585938 C 626.230469 237.816406 626.050781 238.003906 625.824219 238.003906 L 622.972656 238.003906 C 622.746094 238.003906 622.566406 237.816406 622.566406 237.585938 C 622.566406 237.359375 622.746094 237.171875 622.972656 237.171875 L 625.824219 237.171875 C 626.050781 237.171875 626.230469 237.359375 626.230469 237.585938 Z M 631.921875 237.585938 C 631.921875 237.816406 631.734375 238.003906 631.503906 238.003906 L 628.664062 238.003906 C 628.4375 238.003906 628.25 237.816406 628.25 237.585938 C 628.25 237.359375 628.4375 237.171875 628.664062 237.171875 L 631.503906 237.171875 C 631.734375 237.171875 631.921875 237.359375 631.921875 237.585938 Z M 654.667969 237.585938 C 654.667969 237.816406 654.480469 238.003906 654.253906 238.003906 L 651.410156 238.003906 C 651.183594 238.003906 650.996094 237.816406 650.996094 237.585938 C 650.996094 237.359375 651.183594 237.171875 651.410156 237.171875 L 654.253906 237.171875 C 654.480469 237.171875 654.667969 237.359375 654.667969 237.585938 Z M 637.605469 237.585938 C 637.605469 237.816406 637.425781 238.003906 637.199219 238.003906 L 634.347656 238.003906 C 634.121094 238.003906 633.941406 237.816406 633.941406 237.585938 C 633.941406 237.359375 634.121094 237.171875 634.347656 237.171875 L 637.199219 237.171875 C 637.425781 237.171875 637.605469 237.359375 637.605469 237.585938 Z M 660.351562 237.585938 C 660.351562 237.816406 660.171875 238.003906 659.941406 238.003906 L 657.09375 238.003906 C 656.863281 238.003906 656.683594 237.816406 656.683594 237.585938 C 656.683594 237.359375 656.863281 237.171875 657.09375 237.171875 L 659.941406 237.171875 C 660.171875 237.171875 660.351562 237.359375 660.351562 237.585938 Z M 648.976562 237.585938 C 648.976562 237.816406 648.796875 238.003906 648.570312 238.003906 L 645.71875 238.003906 C 645.492188 238.003906 645.3125 237.816406 645.3125 237.585938 C 645.3125 237.359375 645.492188 237.171875 645.71875 237.171875 L 648.570312 237.171875 C 648.796875 237.171875 648.976562 237.359375 648.976562 237.585938 Z M 643.296875 237.585938 C 643.296875 237.816406 643.105469 238.003906 642.878906 238.003906 L 640.039062 238.003906 C 639.8125 238.003906 639.621094 237.816406 639.621094 237.585938 C 639.621094 237.359375 639.8125 237.171875 640.039062 237.171875 L 642.878906 237.171875 C 643.105469 237.171875 643.296875 237.359375 643.296875 237.585938 Z M 592.113281 237.585938 C 592.113281 237.816406 591.933594 238.003906 591.707031 238.003906 L 590.257812 238.003906 C 590.03125 238.003906 589.839844 237.816406 589.839844 237.585938 C 589.839844 237.359375 590.03125 237.171875 590.257812 237.171875 L 591.707031 237.171875 C 591.933594 237.171875 592.113281 237.359375 592.113281 237.585938 Z M 734.96875 226.394531 L 779.929688 244.242188 L 777.050781 251.507812 L 732.152344 233.660156 C 724.386719 247.9375 706.917969 254.511719 691.449219 248.375 C 674.730469 241.738281 666.527344 222.761719 673.164062 206.042969 C 679.800781 189.324219 698.777344 181.121094 715.496094 187.757812 C 730.960938 193.894531 739.164062 210.679688 734.96875 226.394531 Z M 713.304688 193.269531 C 699.589844 187.882812 684.121094 194.523438 678.675781 208.234375 C 673.289062 221.949219 679.925781 237.417969 693.640625 242.863281 C 707.355469 248.25 722.820312 241.613281 728.269531 227.898438 C 733.652344 214.246094 727.015625 198.71875 713.304688 193.269531 Z M 500.6875 121.804688 L 423.578125 121.804688 L 423.578125 110.363281 L 500.6875 110.363281 Z M 555.398438 110.363281 L 509.925781 110.363281 L 509.925781 121.804688 L 555.398438 121.804688 Z M 555.398438 199.902344 L 509.925781 199.902344 L 509.925781 211.34375 L 555.398438 211.34375 Z M 376.328125 77.828125 C 374.183594 77.828125 372.441406 79.570312 372.441406 81.714844 C 372.441406 83.863281 374.183594 85.605469 376.328125 85.605469 C 378.476562 85.605469 380.21875 83.863281 380.21875 81.714844 C 380.21875 79.570312 378.476562 77.828125 376.328125 77.828125 Z M 394.335938 81.714844 C 394.335938 83.863281 392.597656 85.605469 390.449219 85.605469 C 388.300781 85.605469 386.5625 83.863281 386.5625 81.714844 C 386.5625 79.570312 388.300781 77.828125 390.449219 77.828125 C 392.597656 77.828125 394.335938 79.570312 394.335938 81.714844 Z M 394.335938 81.714844 " fill-opacity="1" fill-rule="nonzero"/><g clip-path="url(#9a65e6be26)"><path fill="#e0e887" d="M 708.664062 531.847656 L 113.761719 531.847656 L 113.761719 549.429688 L 708.664062 549.429688 Z M 744.925781 228.523438 L 740.792969 238.855469 L 782.058594 255.261719 L 786.191406 244.929688 Z M 744.925781 228.523438 " fill-opacity="1" fill-rule="nonzero"/></g><path fill="#0097b2" d="M 277.503906 391.714844 L 266.03125 415.003906 L 233.425781 374.667969 L 251.582031 363.691406 Z M 293.289062 415.003906 L 314.476562 375.914062 L 302.332031 363.691406 L 277.5 391.71875 Z M 282.679688 487.128906 L 264.839844 487.128906 L 264.839844 531.847656 L 282.679688 531.847656 Z M 654.621094 173.660156 L 656.808594 175.921875 L 653.078125 179.277344 L 625.164062 204.324219 L 604.992188 204.324219 L 589.839844 214.304688 L 589.839844 219.246094 L 606.230469 208.449219 L 626.753906 208.449219 L 659.25 179.273438 L 659.675781 178.894531 L 661.675781 180.96875 L 664.234375 171.453125 Z M 624.398438 169.648438 L 593.691406 169.648438 C 591.566406 169.648438 589.839844 167.925781 589.839844 165.800781 L 589.839844 164.882812 C 589.839844 162.757812 591.566406 161.03125 593.691406 161.03125 L 624.398438 161.03125 C 626.523438 161.03125 628.25 162.757812 628.25 164.882812 L 628.25 165.800781 C 628.25 167.925781 626.523438 169.648438 624.398438 169.648438 Z M 586.6875 284.003906 L 616.648438 284.003906 L 616.648438 254.035156 C 600.097656 254.035156 586.6875 267.453125 586.6875 284.003906 Z M 586.6875 284.003906 " fill-opacity="1" fill-rule="nonzero"/></svg>