<svg xmlns="http://www.w3.org/2000/svg" xmlns:xlink="http://www.w3.org/1999/xlink" width="500" zoomAndPan="magnify" viewBox="0 0 375 374.999991" height="500" preserveAspectRatio="xMidYMid meet" version="1.0"><defs><clipPath id="08c119f602"><path d="M 30 33 L 217 33 L 217 216 L 30 216 Z M 30 33 " clip-rule="nonzero"/></clipPath><clipPath id="5b680a7ccd"><path d="M 0.628906 78.765625 L 166.402344 0.503906 L 246.363281 169.882812 L 80.589844 248.140625 Z M 0.628906 78.765625 " clip-rule="nonzero"/></clipPath><clipPath id="34239ede5c"><path d="M 0.628906 78.765625 L 166.402344 0.503906 L 246.363281 169.882812 L 80.589844 248.140625 Z M 0.628906 78.765625 " clip-rule="nonzero"/></clipPath><clipPath id="db5ad18fb7"><path d="M 0.628906 78.765625 L 166.402344 0.503906 L 246.363281 169.882812 L 80.589844 248.140625 Z M 0.628906 78.765625 " clip-rule="nonzero"/></clipPath><clipPath id="3930072773"><path d="M 107 104 L 124 104 L 124 169.894531 L 107 169.894531 Z M 107 104 " clip-rule="nonzero"/></clipPath><clipPath id="30ba8dea29"><path d="M 133 123 L 150 123 L 150 169.894531 L 133 169.894531 Z M 133 123 " clip-rule="nonzero"/></clipPath><clipPath id="83230555f6"><path d="M 161 94 L 178 94 L 178 169.894531 L 161 169.894531 Z M 161 94 " clip-rule="nonzero"/></clipPath><clipPath id="582501fc84"><path d="M 80.015625 124 L 97 124 L 97 169.894531 L 80.015625 169.894531 Z M 80.015625 124 " clip-rule="nonzero"/></clipPath><clipPath id="05bf4d7d25"><path d="M 80.015625 79.566406 L 183.628906 79.566406 L 183.628906 132 L 80.015625 132 Z M 80.015625 79.566406 " clip-rule="nonzero"/></clipPath><clipPath id="c64f76c175"><path d="M 0.558594 0.359375 L 286.160156 0.359375 L 286.160156 250.921875 L 0.558594 250.921875 Z M 0.558594 0.359375 " clip-rule="nonzero"/></clipPath><clipPath id="0f6bf528ab"><rect x="0" width="287" y="0" height="251"/></clipPath></defs><g transform="matrix(1, 0, 0, 1, 52, 63)"><g clip-path="url(#0f6bf528ab)"><g clip-path="url(#08c119f602)"><g clip-path="url(#5b680a7ccd)"><g clip-path="url(#34239ede5c)"><g clip-path="url(#db5ad18fb7)"><path fill="#000000" d="M 208 88.632812 L 208.402344 89.488281 L 208.761719 90.359375 L 209.484375 92.109375 L 210.203125 93.859375 L 210.835938 95.640625 C 214.269531 105.144531 215.972656 115.289062 216.089844 125.46875 C 216.121094 135.65625 214.402344 145.859375 211.148438 155.582031 C 207.796875 165.265625 203.046875 174.546875 196.78125 182.8125 C 190.484375 191.03125 182.65625 198.179688 173.714844 203.453125 C 169.253906 206.089844 164.609375 208.414062 159.773438 210.210938 C 154.941406 212.023438 149.96875 213.417969 144.925781 214.332031 C 139.878906 215.222656 134.773438 215.664062 129.703125 215.621094 C 124.632812 215.523438 119.59375 215.019531 114.707031 213.925781 C 114.476562 213.875 114.332031 213.648438 114.386719 213.417969 C 114.429688 213.226562 114.597656 213.09375 114.785156 213.085938 L 114.792969 213.085938 C 119.753906 212.898438 124.640625 212.535156 129.441406 211.765625 C 134.242188 210.992188 138.953125 209.921875 143.535156 208.523438 C 148.113281 207.097656 152.570312 205.367188 156.863281 203.332031 C 157.9375 202.824219 158.988281 202.277344 160.054688 201.757812 L 163.167969 200.039062 L 163.945312 199.613281 L 166.21875 198.230469 L 167.730469 197.304688 L 169.195312 196.308594 C 173.121094 193.695312 176.867188 190.828125 180.359375 187.679688 C 181.261719 186.921875 182.09375 186.089844 182.957031 185.289062 L 184.242188 184.082031 L 185.464844 182.808594 C 187.132812 181.148438 188.695312 179.382812 190.234375 177.59375 L 192.484375 174.863281 L 194.605469 172.023438 C 194.96875 171.554688 195.292969 171.058594 195.621094 170.570312 L 196.613281 169.097656 C 197.296875 168.128906 197.890625 167.101562 198.503906 166.089844 L 199.421875 164.566406 L 200.269531 163 C 200.824219 161.953125 201.429688 160.925781 201.90625 159.839844 L 202.664062 158.226562 C 202.914062 157.6875 203.1875 157.160156 203.402344 156.605469 L 204.765625 153.308594 C 208.128906 144.414062 210.113281 134.957031 210.449219 125.394531 C 210.789062 115.847656 209.652344 106.183594 206.808594 96.972656 L 206.296875 95.238281 L 205.703125 93.53125 L 205.105469 91.824219 L 204.808594 90.96875 L 204.464844 90.128906 L 203.097656 86.773438 C 202.585938 85.679688 202.105469 84.566406 201.566406 83.484375 C 199.4375 79.136719 196.957031 74.949219 194.140625 70.984375 C 191.308594 67.035156 188.144531 63.308594 184.699219 59.84375 C 181.246094 56.382812 177.5 53.203125 173.515625 50.320312 L 173.511719 50.320312 C 173.320312 50.183594 173.28125 49.917969 173.417969 49.730469 C 173.550781 49.546875 173.800781 49.5 173.988281 49.617188 C 178.1875 52.261719 182.191406 55.242188 185.933594 58.539062 C 189.644531 61.871094 193.089844 65.511719 196.230469 69.410156 C 199.347656 73.328125 202.148438 77.511719 204.605469 81.894531 C 205.226562 82.988281 205.785156 84.113281 206.382812 85.222656 Z M 52.40625 76.664062 L 54.527344 73.824219 L 56.777344 71.089844 C 58.316406 69.304688 59.875 67.539062 61.546875 65.878906 L 62.769531 64.605469 L 64.054688 63.394531 C 64.917969 62.597656 65.75 61.761719 66.652344 61.007812 C 70.144531 57.855469 73.890625 54.992188 77.816406 52.375 L 79.28125 51.378906 L 80.792969 50.457031 L 83.066406 49.074219 L 83.84375 48.648438 L 86.957031 46.929688 C 88.019531 46.410156 89.074219 45.859375 90.148438 45.351562 C 94.441406 43.320312 98.894531 41.589844 103.472656 40.164062 C 108.058594 38.765625 112.769531 37.691406 117.566406 36.921875 C 122.371094 36.152344 127.257812 35.785156 132.21875 35.601562 L 132.222656 35.601562 C 132.414062 35.59375 132.582031 35.460938 132.625 35.269531 C 132.675781 35.039062 132.53125 34.808594 132.304688 34.757812 C 127.414062 33.667969 122.378906 33.164062 117.308594 33.066406 C 112.234375 33.019531 107.132812 33.460938 102.085938 34.351562 C 97.042969 35.269531 92.070312 36.664062 87.238281 38.472656 C 82.398438 40.269531 77.757812 42.597656 73.296875 45.234375 C 64.355469 50.507812 56.527344 57.65625 50.226562 65.871094 C 43.960938 74.136719 39.214844 83.417969 35.863281 93.101562 C 32.605469 102.828125 30.886719 113.03125 30.921875 123.21875 C 31.039062 133.398438 32.738281 143.539062 36.175781 153.042969 L 36.808594 154.828125 L 37.523438 156.578125 L 38.246094 158.324219 L 38.609375 159.199219 L 39.011719 160.054688 L 40.628906 163.464844 C 41.222656 164.574219 41.785156 165.699219 42.40625 166.792969 C 44.863281 171.179688 47.664062 175.359375 50.78125 179.277344 C 53.921875 183.179688 57.367188 186.820312 61.078125 190.148438 C 64.820312 193.445312 68.824219 196.425781 73.023438 199.070312 C 73.210938 199.1875 73.460938 199.140625 73.59375 198.960938 C 73.730469 198.769531 73.6875 198.503906 73.5 198.367188 L 73.496094 198.367188 C 69.511719 195.488281 65.765625 192.304688 62.3125 188.84375 C 58.867188 185.382812 55.703125 181.65625 52.871094 177.703125 C 50.054688 173.738281 47.574219 169.550781 45.445312 165.203125 C 44.90625 164.121094 44.425781 163.007812 43.914062 161.914062 L 42.542969 158.558594 L 42.203125 157.71875 L 41.902344 156.867188 L 41.304688 155.15625 L 40.710938 153.449219 L 40.203125 151.714844 C 37.359375 142.507812 36.21875 132.839844 36.5625 123.292969 C 36.898438 113.734375 38.882812 104.277344 42.246094 95.378906 L 43.609375 92.082031 C 43.824219 91.53125 44.097656 91 44.34375 90.460938 L 45.105469 88.847656 C 45.582031 87.761719 46.1875 86.734375 46.742188 85.6875 L 47.585938 84.121094 L 48.507812 82.597656 C 49.121094 81.585938 49.714844 80.558594 50.398438 79.589844 L 51.386719 78.117188 C 51.71875 77.625 52.039062 77.132812 52.40625 76.664062 Z M 52.40625 76.664062 " fill-opacity="1" fill-rule="nonzero"/></g></g></g></g><g clip-path="url(#3930072773)"><path fill="#81b7ff" d="M 107.117188 113.085938 L 115.480469 104.289062 L 123.628906 113.085938 L 123.628906 169.417969 L 107.117188 169.417969 Z M 107.117188 113.085938 " fill-opacity="1" fill-rule="nonzero"/></g><g clip-path="url(#30ba8dea29)"><path fill="#81b7ff" d="M 149.949219 124.515625 C 149.949219 124.492188 149.949219 124.472656 149.949219 124.449219 C 149.949219 122.820312 149.175781 123.65625 147.898438 125.035156 C 146.390625 126.660156 144.183594 129.042969 141.710938 129.042969 C 139.242188 129.042969 137.027344 126.667969 135.511719 125.042969 C 134.222656 123.65625 133.4375 122.816406 133.4375 124.449219 C 133.4375 124.472656 133.4375 124.492188 133.4375 124.515625 L 133.4375 169.390625 L 149.949219 169.390625 Z M 149.949219 124.515625 " fill-opacity="1" fill-rule="evenodd"/></g><g clip-path="url(#83230555f6)"><path fill="#81b7ff" d="M 161.453125 111.097656 L 177.964844 94.730469 L 177.964844 169.417969 L 161.453125 169.417969 Z M 161.453125 111.097656 " fill-opacity="1" fill-rule="nonzero"/></g><g clip-path="url(#582501fc84)"><path fill="#81b7ff" d="M 87.476562 133.738281 L 80.089844 124.964844 L 80.089844 129.265625 C 80.042969 129.378906 80.019531 129.542969 80.019531 129.773438 C 80.019531 130 80.042969 130.226562 80.089844 130.449219 L 80.089844 169.417969 L 96.601562 169.417969 L 96.601562 124.964844 L 88.878906 133.753906 C 88.675781 133.785156 88.46875 133.800781 88.257812 133.800781 C 87.992188 133.800781 87.734375 133.78125 87.476562 133.738281 Z M 87.476562 133.738281 " fill-opacity="1" fill-rule="evenodd"/></g><g clip-path="url(#05bf4d7d25)"><path fill="#000000" d="M 179.429688 94.167969 L 183.351562 79.566406 L 168.808594 83.707031 L 171.421875 86.277344 L 142.097656 115.804688 L 118.089844 91.023438 L 115.445312 88.132812 L 110.34375 93.953125 L 110.261719 94.042969 L 110.261719 94.046875 L 87.085938 120.507812 L 80.695312 114.097656 L 80.695312 123.089844 L 88.148438 131.347656 L 88.820312 130.492188 L 115.632812 99.765625 L 136.230469 121.707031 L 136.210938 121.726562 L 137.738281 123.3125 L 141.066406 126.855469 L 141.109375 126.8125 L 141.773438 127.5 L 177.300781 92.070312 Z M 179.429688 94.167969 " fill-opacity="1" fill-rule="evenodd"/></g><path stroke-linecap="butt" transform="matrix(0, 1.328383, -1.328383, 0, 81.3352, 79.573642)" fill="none" stroke-linejoin="miter" d="M 0.000434297 0.99925 L 67.652001 0.99925 " stroke="#000000" stroke-width="2" stroke-opacity="1" stroke-miterlimit="4"/><g clip-path="url(#c64f76c175)"><path stroke-linecap="butt" transform="matrix(1.067569, 0.790505, -0.790505, 1.067569, 211.322146, 164.467367)" fill="none" stroke-linejoin="miter" d="M -0.00108014 14.49911 L 55.310376 14.501532 " stroke="#000000" stroke-width="29" stroke-opacity="1" stroke-miterlimit="4"/></g><path stroke-linecap="butt" transform="matrix(1.328383, -0.000000000000000494, 0.000000000000000494, 1.328383, 80.014381, 168.105484)" fill="none" stroke-linejoin="miter" d="M 0.000936152 0.999794 L 75.462751 0.999794 " stroke="#000000" stroke-width="2" stroke-opacity="1" stroke-miterlimit="4"/></g></g></svg>