<svg xmlns="http://www.w3.org/2000/svg" xmlns:xlink="http://www.w3.org/1999/xlink" width="1200" zoomAndPan="magnify" viewBox="0 0 900 599.999999" height="800" preserveAspectRatio="xMidYMid meet" version="1.0"><defs><clipPath id="114235f793"><path d="M 192 370 L 314 370 L 314 559.421875 L 192 559.421875 Z M 192 370 " clip-rule="nonzero"/></clipPath><clipPath id="a37610e5b8"><path d="M 241 357 L 388 357 L 388 559.421875 L 241 559.421875 Z M 241 357 " clip-rule="nonzero"/></clipPath><clipPath id="3c2b05b4f2"><path d="M 348 529 L 388 529 L 388 559.421875 L 348 559.421875 Z M 348 529 " clip-rule="nonzero"/></clipPath><clipPath id="29684eebda"><path d="M 304 529 L 345 529 L 345 559.421875 L 304 559.421875 Z M 304 529 " clip-rule="nonzero"/></clipPath><clipPath id="a35683d3a3"><path d="M 231 356 L 390 356 L 390 559.421875 L 231 559.421875 Z M 231 356 " clip-rule="nonzero"/></clipPath><clipPath id="8458c253ff"><path d="M 401 40.421875 L 496 40.421875 L 496 58 L 401 58 Z M 401 40.421875 " clip-rule="nonzero"/></clipPath><clipPath id="444a5423a3"><path d="M 649 265 L 708.894531 265 L 708.894531 348 L 649 348 Z M 649 265 " clip-rule="nonzero"/></clipPath><clipPath id="2d6a873ef1"><path d="M 648 264 L 708.894531 264 L 708.894531 349 L 648 349 Z M 648 264 " clip-rule="nonzero"/></clipPath><clipPath id="b758f31f45"><path d="M 549 265 L 687 265 L 687 559.421875 L 549 559.421875 Z M 549 265 " clip-rule="nonzero"/></clipPath><clipPath id="bb65c9896a"><path d="M 545 428 L 557 428 L 557 559.421875 L 545 559.421875 Z M 545 428 " clip-rule="nonzero"/></clipPath><clipPath id="74c1c43874"><path d="M 323 428 L 335 428 L 335 559.421875 L 323 559.421875 Z M 323 428 " clip-rule="nonzero"/></clipPath></defs><path fill="#ffffff" d="M 286.984375 476.730469 L 220.578125 476.730469 C 216.753906 474.226562 213.941406 470.449219 212.632812 466.070312 L 212.503906 465.640625 L 193.019531 388.089844 C 190.9375 379.792969 197.070312 371.703125 205.625 371.453125 L 217.191406 371.121094 C 225.175781 370.890625 232.25 376.230469 234.207031 383.964844 L 247.839844 437.730469 C 249.039062 442.460938 251.78125 446.652344 255.640625 449.648438 L 287.730469 474.554688 C 288.644531 475.265625 288.144531 476.730469 286.984375 476.730469 Z M 286.984375 476.730469 " fill-opacity="1" fill-rule="nonzero"/><path fill="#c7e0e3" d="M 212.179688 558.691406 L 209.832031 558.691406 C 209.097656 558.691406 208.527344 558.046875 208.625 557.316406 L 219.09375 477.789062 C 219.171875 477.183594 219.6875 476.730469 220.300781 476.730469 L 290.535156 476.730469 L 311.78125 475.9375 C 312.515625 475.910156 313.105469 476.527344 313.042969 477.257812 L 312.621094 482.125 C 312.578125 482.628906 312.226562 483.054688 311.738281 483.191406 L 298.199219 487.003906 C 297.652344 487.15625 297.285156 487.671875 297.3125 488.238281 L 300.917969 557.414062 C 300.953125 558.109375 300.398438 558.691406 299.703125 558.691406 L 297.9375 558.691406 C 297.359375 558.691406 296.863281 558.289062 296.746094 557.726562 L 282.667969 491.003906 C 282.550781 490.441406 282.050781 490.039062 281.476562 490.039062 L 250.847656 490.039062 L 237.605469 549.527344 C 237.484375 550.082031 236.988281 550.476562 236.417969 550.476562 L 234.09375 550.476562 C 233.351562 550.476562 232.78125 549.820312 232.886719 549.085938 L 241.429688 490.039062 L 229.625 490.039062 C 229.054688 490.039062 228.5625 490.433594 228.433594 490.988281 L 213.367188 557.742188 C 213.242188 558.296875 212.746094 558.691406 212.179688 558.691406 Z M 212.179688 558.691406 " fill-opacity="1" fill-rule="nonzero"/><g clip-path="url(#114235f793)"><path fill="#1b2a1f" d="M 234.574219 382.308594 C 232.097656 375.75 225.730469 371.484375 218.71875 371.6875 L 205.644531 372.0625 C 197.476562 372.296875 191.621094 380.023438 193.609375 387.941406 L 213.09375 465.480469 L 213.21875 465.898438 C 214.464844 470.082031 217.136719 473.695312 220.761719 476.125 L 288.695312 476.125 L 268.050781 460.824219 C 264.578125 458.25 261.921875 454.730469 260.394531 450.691406 Z M 290.726562 476.117188 L 268.773438 459.84375 C 265.492188 457.410156 262.976562 454.082031 261.535156 450.261719 L 235.714844 381.878906 C 233.054688 374.835938 226.214844 370.253906 218.683594 370.46875 L 205.609375 370.847656 C 196.664062 371.105469 190.25 379.566406 192.429688 388.238281 L 211.917969 465.804688 L 212.050781 466.246094 C 213.277344 470.347656 215.785156 473.9375 219.191406 476.5 C 218.816406 476.785156 218.554688 477.214844 218.488281 477.710938 L 208.019531 557.238281 C 207.878906 558.332031 208.730469 559.300781 209.832031 559.300781 L 212.179688 559.300781 C 213.03125 559.300781 213.773438 558.710938 213.960938 557.878906 L 229.03125 491.121094 C 229.09375 490.84375 229.339844 490.648438 229.625 490.648438 L 240.726562 490.648438 L 232.285156 549 C 232.125 550.101562 232.980469 551.085938 234.09375 551.085938 L 236.417969 551.085938 C 237.273438 551.085938 238.015625 550.492188 238.199219 549.660156 L 251.335938 490.648438 L 281.476562 490.648438 C 281.765625 490.648438 282.011719 490.847656 282.074219 491.128906 L 296.148438 557.851562 C 296.328125 558.695312 297.074219 559.300781 297.9375 559.300781 L 299.703125 559.300781 C 300.75 559.300781 301.582031 558.425781 301.527344 557.382812 L 297.921875 488.207031 C 297.90625 487.921875 298.089844 487.667969 298.363281 487.589844 L 311.90625 483.777344 C 312.636719 483.570312 313.164062 482.933594 313.226562 482.175781 L 313.648438 477.308594 C 313.742188 476.214844 312.859375 475.285156 311.761719 475.328125 Z M 250.089844 490.648438 L 241.957031 490.648438 L 233.488281 549.175781 C 233.4375 549.542969 233.722656 549.871094 234.09375 549.871094 L 236.417969 549.871094 C 236.703125 549.871094 236.949219 549.671875 237.011719 549.394531 Z M 311.804688 476.542969 L 290.546875 477.339844 L 220.300781 477.339844 C 219.996094 477.339844 219.738281 477.566406 219.695312 477.871094 L 209.230469 557.398438 C 209.179688 557.761719 209.464844 558.085938 209.832031 558.085938 L 212.179688 558.085938 C 212.464844 558.085938 212.710938 557.886719 212.773438 557.609375 L 227.839844 490.855469 C 228.03125 490.023438 228.769531 489.433594 229.625 489.433594 L 281.476562 489.433594 C 282.339844 489.433594 283.085938 490.035156 283.261719 490.878906 L 297.339844 557.601562 C 297.398438 557.882812 297.648438 558.085938 297.9375 558.085938 L 299.703125 558.085938 C 300.050781 558.085938 300.328125 557.792969 300.308594 557.445312 L 296.707031 488.269531 C 296.664062 487.417969 297.210938 486.648438 298.035156 486.417969 L 311.574219 482.605469 C 311.816406 482.535156 311.992188 482.324219 312.015625 482.070312 L 312.433594 477.203125 C 312.46875 476.839844 312.171875 476.53125 311.804688 476.542969 Z M 311.804688 476.542969 " fill-opacity="1" fill-rule="evenodd"/></g><g clip-path="url(#a37610e5b8)"><path fill="#c7e0e3" d="M 340.15625 454.710938 C 344.359375 465.890625 328.273438 504.769531 325.417969 529.875 C 325.867188 531.675781 327.066406 547.171875 341.957031 553.257812 C 343.320312 553.816406 344.234375 555.171875 344.074219 556.636719 C 343.898438 558.21875 342.535156 559.40625 340.941406 559.367188 L 320.707031 558.859375 C 320.320312 558.851562 319.964844 558.65625 319.75 558.335938 L 314.179688 549.980469 C 313.511719 548.984375 311.953125 549.496094 312.011719 550.695312 L 312.339844 557.609375 C 312.375 558.28125 311.835938 558.847656 311.160156 558.847656 L 305.339844 558.847656 C 304.945312 558.847656 304.597656 558.644531 304.523438 558.253906 C 303.824219 554.597656 304.289062 537.003906 306.484375 529.875 L 325.417969 529.875 C 328.273438 504.769531 344.359375 465.890625 340.15625 454.710938 C 339.917969 454.082031 340.109375 453.328125 340.753906 453.148438 C 341.578125 452.917969 342.601562 452.828125 343.65625 453.117188 C 346.101562 453.792969 346.773438 456.734375 346.875 459.265625 L 349.632812 528.742188 C 349.660156 529.375 350.179688 529.875 350.816406 529.875 L 375.714844 529.875 C 376.367188 529.875 376.898438 529.355469 376.898438 528.703125 C 376.921875 502.136719 377.703125 464.046875 373.347656 450.0625 C 366.898438 429.347656 358.035156 426.886719 323.511719 427.4375 C 315.757812 427.558594 304.210938 428.777344 294.289062 429.871094 L 241.929688 427.4375 L 248.625 363.566406 L 271.632812 357.480469 C 273.753906 357.136719 275.847656 357.449219 277.851562 358.445312 C 294.289062 366 308.898438 424.488281 323.511719 427.4375 C 358.035156 426.886719 366.898438 429.347656 373.347656 450.0625 C 377.703125 464.046875 376.921875 502.136719 376.898438 528.703125 C 376.898438 529.355469 376.367188 529.875 375.714844 529.875 L 370.386719 529.875 C 369.398438 541.238281 379.980469 549.710938 386.246094 553.570312 C 387.828125 554.542969 388.347656 556.664062 387.269531 558.171875 C 386.703125 558.964844 385.785156 559.4375 384.808594 559.4375 L 366.207031 559.4375 C 365.855469 559.4375 365.523438 559.28125 365.300781 559.015625 L 358.277344 550.683594 C 357.566406 549.839844 356.1875 550.339844 356.1875 551.445312 L 356.1875 558.253906 C 356.1875 558.90625 355.65625 559.4375 355.003906 559.4375 L 350.71875 559.4375 C 350.125 559.4375 349.621094 559 349.550781 558.410156 C 348.601562 550.355469 347.6875 534.859375 350.863281 529.875 L 350.816406 529.875 C 350.179688 529.875 349.660156 529.375 349.632812 528.742188 L 346.875 459.265625 C 346.773438 456.734375 346.101562 453.792969 343.65625 453.117188 C 342.601562 452.828125 341.578125 452.917969 340.753906 453.148438 C 340.109375 453.328125 339.917969 454.082031 340.15625 454.710938 Z M 340.15625 454.710938 " fill-opacity="1" fill-rule="nonzero"/></g><path fill="#ffffff" d="M 303.226562 399.855469 L 309.773438 399.007812 C 309.960938 398.984375 310.144531 398.9375 310.332031 398.921875 C 310.863281 398.878906 311.386719 399.136719 311.664062 399.609375 C 312.125 400.382812 311.742188 401.390625 310.976562 401.867188 C 306.613281 404.585938 299.109375 413.15625 289.417969 413.269531 L 287.542969 398.585938 C 296.136719 396.320312 301.871094 387.222656 306.546875 380.371094 C 306.925781 379.8125 307.621094 379.570312 308.277344 379.738281 C 309.25 379.988281 309.785156 381.035156 309.410156 381.96875 L 301.660156 398.246094 C 301.296875 399.15625 302.101562 400.089844 303.039062 399.890625 C 303.101562 399.875 303.164062 399.863281 303.226562 399.855469 Z M 303.226562 399.855469 " fill-opacity="1" fill-rule="nonzero"/><path fill="#1b2a1f" d="M 312.191406 399.300781 C 312.859375 400.433594 312.265625 401.78125 311.296875 402.382812 C 310.230469 403.046875 308.988281 404.09375 307.523438 405.328125 L 307.488281 405.359375 C 306.050781 406.570312 304.421875 407.941406 302.625 409.222656 C 298.992188 411.800781 294.585938 414.054688 289.402344 413.921875 L 289.433594 412.707031 C 294.234375 412.828125 298.378906 410.742188 301.917969 408.230469 C 303.675781 406.980469 305.269531 405.636719 306.714844 404.417969 L 306.742188 404.398438 C 308.175781 403.183594 309.496094 402.074219 310.652344 401.351562 C 311.214844 401.003906 311.386719 400.335938 311.140625 399.917969 C 310.980469 399.652344 310.6875 399.503906 310.382812 399.527344 C 310.324219 399.53125 310.253906 399.542969 310.164062 399.5625 C 310.152344 399.5625 310.140625 399.5625 310.125 399.566406 C 310.046875 399.582031 309.949219 399.601562 309.851562 399.613281 L 303.304688 400.457031 C 303.273438 400.460938 303.25 400.46875 303.191406 400.480469 C 303.183594 400.480469 303.175781 400.480469 303.167969 400.484375 C 301.757812 400.785156 300.546875 399.386719 301.097656 398.015625 L 301.105469 398 L 308.847656 381.726562 C 309.074219 381.136719 308.738281 380.484375 308.125 380.328125 C 307.703125 380.21875 307.277344 380.378906 307.046875 380.714844 C 306.324219 381.777344 305.59375 382.90625 304.851562 384.058594 C 303.113281 386.75 301.285156 389.578125 299.199219 392.039062 C 296.199219 395.582031 292.574219 398.480469 287.691406 399.316406 L 287.488281 398.117188 C 291.972656 397.351562 295.367188 394.683594 298.269531 391.253906 C 300.304688 388.855469 302.058594 386.140625 303.777344 383.476562 C 304.53125 382.308594 305.28125 381.148438 306.042969 380.03125 C 306.578125 379.25 307.535156 378.921875 308.425781 379.148438 C 309.757812 379.488281 310.484375 380.921875 309.972656 382.195312 L 309.964844 382.210938 L 302.222656 398.484375 C 302.050781 398.933594 302.449219 399.394531 302.914062 399.292969 C 302.917969 399.292969 302.925781 399.292969 302.933594 399.289062 C 302.984375 399.277344 303.066406 399.261719 303.148438 399.25 L 309.695312 398.40625 C 309.757812 398.398438 309.820312 398.386719 309.898438 398.371094 C 309.914062 398.371094 309.929688 398.367188 309.945312 398.363281 C 310.039062 398.347656 310.15625 398.324219 310.285156 398.316406 C 311.042969 398.25 311.789062 398.625 312.191406 399.300781 Z M 312.191406 399.300781 " fill-opacity="1" fill-rule="evenodd"/><path fill="#c7e0e3" d="M 294.289062 429.871094 L 244.363281 423.65625 L 234.625 425.480469 L 234.304688 435.820312 Z M 294.289062 429.871094 " fill-opacity="1" fill-rule="nonzero"/><g clip-path="url(#3c2b05b4f2)"><path fill="#ffffff" d="M 386.246094 553.570312 C 379.980469 549.710938 369.398438 541.238281 370.390625 529.875 L 350.863281 529.875 C 347.6875 534.859375 348.601562 550.355469 349.554688 558.410156 C 349.621094 559 350.125 559.4375 350.71875 559.4375 L 355.003906 559.4375 C 355.660156 559.4375 356.1875 558.90625 356.1875 558.253906 L 356.1875 551.445312 C 356.1875 550.339844 357.566406 549.839844 358.277344 550.683594 L 365.300781 559.015625 C 365.523438 559.28125 365.855469 559.4375 366.207031 559.4375 L 384.8125 559.4375 C 385.785156 559.4375 386.703125 558.964844 387.269531 558.171875 C 388.347656 556.664062 387.828125 554.542969 386.246094 553.570312 Z M 386.246094 553.570312 " fill-opacity="1" fill-rule="nonzero"/></g><g clip-path="url(#29684eebda)"><path fill="#ffffff" d="M 324.46875 529.875 L 306.484375 529.875 C 304.289062 537.003906 303.824219 554.597656 304.523438 558.253906 C 304.597656 558.644531 304.945312 558.847656 305.339844 558.847656 L 311.160156 558.847656 C 311.835938 558.847656 312.375 558.28125 312.339844 557.609375 L 312.011719 550.695312 C 311.953125 549.496094 313.511719 548.984375 314.179688 549.980469 L 319.753906 558.335938 C 319.964844 558.65625 320.320312 558.851562 320.707031 558.859375 L 340.941406 559.367188 C 342.535156 559.40625 343.898438 558.21875 344.074219 556.636719 C 344.234375 555.171875 343.320312 553.816406 341.957031 553.257812 C 328.558594 547.78125 326.246094 534.683594 325.589844 530.804688 C 325.496094 530.253906 325.027344 529.875 324.46875 529.875 Z M 324.46875 529.875 " fill-opacity="1" fill-rule="nonzero"/></g><path fill="#1b2a1f" d="M 308.257812 463.070312 C 300.246094 467.578125 259.652344 489.703125 238.664062 469.707031 C 232.507812 463.839844 231.832031 454.609375 232.796875 446.164062 L 234.210938 432.910156 L 244.363281 432.910156 L 279.675781 429.738281 C 332.035156 427.914062 364.910156 417.703125 373.347656 450.0625 C 377.042969 464.234375 376.921875 502.136719 376.898438 528.703125 C 376.898438 529.355469 376.367188 529.875 375.714844 529.875 L 350.816406 529.875 C 350.179688 529.875 349.660156 529.375 349.632812 528.742188 L 346.875 459.265625 C 346.773438 456.734375 346.101562 453.792969 343.65625 453.117188 C 342.601562 452.828125 341.578125 452.917969 340.753906 453.148438 C 340.109375 453.328125 339.917969 454.082031 340.15625 454.710938 C 344.296875 465.734375 328.722656 503.679688 325.546875 528.808594 C 325.46875 529.421875 324.949219 529.875 324.332031 529.875 L 303.855469 529.875 C 303.3125 529.875 302.839844 529.515625 302.726562 528.988281 C 297.523438 505.097656 316.730469 458.300781 308.257812 463.070312 Z M 308.257812 463.070312 " fill-opacity="1" fill-rule="nonzero"/><g clip-path="url(#a35683d3a3)"><path fill="#1b2a1f" d="M 271.535156 356.882812 C 273.78125 356.515625 276.007812 356.847656 278.121094 357.902344 C 282.234375 359.949219 286.050781 364.476562 289.648438 370.167969 C 293.261719 375.878906 296.710938 382.863281 300.054688 389.941406 L 298.953125 390.460938 C 295.609375 383.386719 292.1875 376.460938 288.621094 370.820312 C 287.40625 368.898438 286.183594 367.140625 284.949219 365.578125 C 285.800781 367.128906 286.621094 368.867188 287.402344 370.777344 C 290.089844 377.375 292.328125 386.085938 293.785156 396.195312 L 292.578125 396.371094 C 291.128906 386.324219 288.914062 377.714844 286.273438 371.234375 C 284.953125 367.996094 283.53125 365.300781 282.054688 363.226562 C 280.574219 361.148438 279.0625 359.730469 277.578125 358.988281 C 275.691406 358.050781 273.722656 357.757812 271.730469 358.082031 Z M 303.074219 396.324219 L 304.578125 399.507812 L 303.480469 400.027344 L 301.976562 396.84375 Z M 314.589844 420.667969 C 311.769531 416.699219 308.96875 411.441406 306.148438 405.675781 L 307.242188 405.140625 C 310.058594 410.898438 312.824219 416.082031 315.582031 419.960938 C 318.34375 423.84375 320.996094 426.277344 323.570312 426.828125 C 340.761719 426.554688 351.726562 427.023438 359.195312 430.214844 C 366.773438 433.453125 370.683594 439.457031 373.929688 449.882812 C 376.136719 456.96875 377.027344 470.074219 377.371094 484.648438 C 377.632812 495.652344 377.585938 507.554688 377.539062 518.433594 C 377.523438 521.988281 377.511719 525.433594 377.507812 528.703125 C 377.507812 529.699219 376.699219 530.484375 375.714844 530.484375 L 370.957031 530.484375 C 370.675781 535.722656 372.933594 540.335938 376.066406 544.152344 C 379.3125 548.101562 383.464844 551.140625 386.566406 553.050781 C 387.28125 553.492188 388.179688 554.132812 388.691406 554.921875 C 389.058594 555.480469 389.097656 556.085938 388.914062 556.640625 C 388.742188 557.171875 388.371094 557.640625 387.945312 558.019531 C 387.09375 558.765625 385.839844 559.308594 384.734375 559.308594 L 366.128906 559.308594 C 365.605469 559.308594 365.105469 559.078125 364.765625 558.679688 L 357.816406 551.082031 L 357.8125 551.074219 C 357.464844 550.664062 356.804688 550.90625 356.796875 551.4375 C 356.796875 551.4375 356.796875 551.441406 356.796875 551.445312 L 356.960938 557.515625 C 356.960938 558.503906 356.160156 559.308594 355.171875 559.308594 L 350.886719 559.308594 C 349.988281 559.308594 349.21875 558.648438 349.113281 557.742188 C 348.636719 553.703125 348.128906 547.972656 348.136719 542.621094 C 348.140625 539.945312 348.273438 537.347656 348.609375 535.097656 C 348.886719 533.230469 349.3125 531.554688 349.949219 530.261719 C 349.417969 529.96875 349.050781 529.414062 349.027344 528.765625 L 346.265625 459.289062 C 346.214844 458.058594 346.027344 456.773438 345.582031 455.734375 C 345.144531 454.707031 344.480469 453.976562 343.492188 453.703125 C 342.570312 453.449219 341.660156 453.527344 340.917969 453.730469 C 340.816406 453.761719 340.746094 453.828125 340.699219 453.957031 C 340.652344 454.097656 340.652344 454.300781 340.726562 454.496094 C 341.289062 455.996094 341.5 457.914062 341.453125 460.132812 C 341.410156 462.355469 341.109375 464.921875 340.628906 467.746094 C 339.660156 473.386719 337.949219 480.101562 336.019531 487.230469 C 335.457031 489.320312 334.875 491.445312 334.285156 493.589844 C 330.863281 506.066406 327.257812 519.195312 326.035156 529.84375 C 326.074219 530.03125 326.121094 530.292969 326.179688 530.628906 C 326.835938 534.46875 329.042969 547.324219 342.1875 552.695312 C 343.773438 553.34375 344.875 554.9375 344.675781 556.703125 C 344.574219 557.640625 344.171875 558.367188 343.503906 558.839844 C 342.851562 559.292969 342.027344 559.460938 341.152344 559.4375 L 320.917969 558.929688 C 320.339844 558.917969 319.804688 558.625 319.480469 558.148438 L 313.679688 550.332031 L 313.671875 550.320312 C 313.347656 549.835938 312.59375 550.085938 312.621094 550.664062 L 312.621094 550.671875 L 312.855469 557.429688 L 312.855469 557.433594 C 312.902344 558.453125 312.085938 559.308594 311.066406 559.308594 L 305.246094 559.308594 C 304.664062 559.308594 303.976562 558.984375 303.828125 558.21875 C 303.644531 557.246094 303.546875 555.417969 303.535156 553.160156 C 303.523438 550.882812 303.597656 548.125 303.761719 545.257812 C 304.066406 539.941406 304.6875 534.191406 305.675781 530.484375 L 303.855469 530.484375 C 303.046875 530.484375 302.3125 529.945312 302.128906 529.117188 C 300.808594 523.042969 301.097656 515.6875 302.105469 508.152344 C 303.117188 500.613281 304.851562 492.84375 306.453125 485.933594 C 306.621094 485.210938 306.785156 484.503906 306.949219 483.804688 C 308.351562 477.765625 309.570312 472.527344 310.003906 468.8125 C 310.246094 466.71875 310.222656 465.226562 309.917969 464.359375 C 309.769531 463.941406 309.585938 463.742188 309.402344 463.648438 C 309.222656 463.554688 308.921875 463.511719 308.425781 463.65625 C 308.242188 463.707031 307.878906 463.855469 307.320312 464.105469 C 306.769531 464.351562 306.070312 464.679688 305.230469 465.070312 L 305.191406 465.089844 C 303.519531 465.871094 301.316406 466.902344 298.714844 468.035156 C 293.46875 470.324219 286.601562 473.035156 279.199219 474.984375 C 264.449219 478.863281 247.277344 479.796875 236.714844 467.886719 C 231.84375 462.394531 231.304688 454.628906 231.949219 447.550781 L 234.015625 424.816406 L 235.230469 424.929688 L 233.160156 447.664062 C 232.523438 454.671875 233.109375 461.988281 237.625 467.082031 C 247.683594 478.417969 264.179688 477.679688 278.886719 473.808594 C 286.207031 471.878906 293.011719 469.195312 298.226562 466.921875 C 300.8125 465.792969 303.007812 464.769531 304.679688 463.984375 L 304.714844 463.96875 C 305.550781 463.578125 306.261719 463.246094 306.820312 462.996094 C 307.367188 462.75 307.808594 462.566406 308.089844 462.484375 C 308.761719 462.292969 309.402344 462.285156 309.957031 462.566406 C 310.507812 462.84375 310.855469 463.359375 311.066406 463.953125 C 311.472656 465.113281 311.457031 466.859375 311.210938 468.953125 C 310.769531 472.742188 309.535156 478.050781 308.136719 484.066406 C 307.972656 484.769531 307.808594 485.484375 307.640625 486.207031 C 306.039062 493.121094 304.316406 500.839844 303.3125 508.316406 C 302.3125 515.800781 302.042969 522.988281 303.320312 528.859375 C 303.371094 529.089844 303.582031 529.269531 303.855469 529.269531 L 324.875 529.269531 C 326.160156 518.597656 329.742188 505.546875 333.117188 493.25 C 333.703125 491.109375 334.285156 488.992188 334.847656 486.914062 C 336.773438 479.785156 338.472656 473.117188 339.425781 467.539062 C 339.90625 464.75 340.195312 462.25 340.238281 460.109375 C 340.28125 457.960938 340.070312 456.21875 339.585938 454.925781 C 339.421875 454.492188 339.398438 454 339.546875 453.5625 C 339.703125 453.113281 340.046875 452.710938 340.59375 452.558594 C 341.496094 452.308594 342.636719 452.207031 343.816406 452.53125 C 345.273438 452.933594 346.171875 454.011719 346.703125 455.257812 C 347.230469 456.488281 347.429688 457.941406 347.484375 459.242188 L 350.242188 528.71875 C 350.253906 529.023438 350.507812 529.269531 350.816406 529.269531 L 375.714844 529.269531 C 376.039062 529.269531 376.289062 529.015625 376.289062 528.703125 C 376.292969 525.421875 376.308594 521.972656 376.320312 518.414062 C 376.367188 507.539062 376.417969 495.664062 376.15625 484.679688 C 375.808594 470.070312 374.914062 457.136719 372.765625 450.242188 C 369.5625 439.957031 365.8125 434.367188 358.71875 431.335938 C 351.523438 428.257812 340.8125 427.769531 323.519531 428.042969 C 315.800781 428.167969 304.890625 429.25 294.964844 430.34375 L 294.265625 430.421875 L 294.289062 429.71875 C 294.484375 423.863281 294.425781 418.179688 294.148438 412.738281 L 295.363281 412.675781 C 295.628906 417.933594 295.695312 423.414062 295.527344 429.058594 C 304.097656 428.117188 313.371094 427.199219 320.65625 426.910156 C 318.5625 425.621094 316.546875 423.417969 314.589844 420.667969 Z M 324.917969 530.484375 L 306.9375 530.484375 C 305.9375 534.023438 305.292969 539.847656 304.980469 545.328125 C 304.816406 548.171875 304.742188 550.90625 304.753906 553.152344 C 304.765625 555.417969 304.863281 557.140625 305.023438 557.992188 C 305.027344 558.011719 305.035156 558.019531 305.039062 558.023438 C 305.039062 558.027344 305.046875 558.035156 305.058594 558.046875 C 305.085938 558.066406 305.148438 558.089844 305.246094 558.089844 L 311.066406 558.089844 C 311.390625 558.089844 311.652344 557.816406 311.636719 557.488281 L 311.636719 557.480469 L 311.402344 550.722656 C 311.402344 550.722656 311.402344 550.71875 311.402344 550.71875 C 311.320312 548.914062 313.664062 548.140625 314.675781 549.632812 L 320.476562 557.445312 L 320.484375 557.460938 C 320.585938 557.613281 320.761719 557.710938 320.949219 557.714844 L 341.183594 558.21875 C 341.902344 558.238281 342.441406 558.097656 342.800781 557.84375 C 343.140625 557.605469 343.394531 557.214844 343.46875 556.570312 C 343.597656 555.410156 342.871094 554.289062 341.726562 553.820312 C 327.863281 548.15625 325.582031 534.480469 324.96875 530.804688 C 324.949219 530.6875 324.933594 530.582031 324.917969 530.484375 Z M 351.207031 530.484375 C 350.570312 531.621094 350.113281 533.265625 349.8125 535.277344 C 349.488281 537.449219 349.355469 539.980469 349.351562 542.621094 C 349.34375 547.90625 349.851562 553.585938 350.324219 557.601562 C 350.355469 557.875 350.589844 558.089844 350.886719 558.089844 L 355.171875 558.089844 C 355.484375 558.089844 355.742188 557.835938 355.746094 557.523438 C 355.746094 557.519531 355.746094 557.519531 355.746094 557.515625 L 355.578125 551.460938 L 355.578125 551.445312 C 355.578125 549.777344 357.652344 549.015625 358.734375 550.28125 L 365.679688 557.875 L 365.6875 557.886719 C 365.796875 558.015625 365.960938 558.089844 366.128906 558.089844 L 384.734375 558.089844 C 385.496094 558.089844 386.476562 557.691406 387.140625 557.105469 C 387.464844 556.816406 387.671875 556.523438 387.757812 556.261719 C 387.835938 556.027344 387.820312 555.808594 387.671875 555.585938 C 387.316406 555.039062 386.621094 554.515625 385.925781 554.085938 C 382.761719 552.140625 378.488281 549.015625 375.125 544.921875 C 371.886719 540.984375 369.457031 536.101562 369.738281 530.484375 Z M 351.207031 530.484375 " fill-opacity="1" fill-rule="evenodd"/></g><path fill="#c7e0e3" d="M 286.109375 413.613281 L 284.71875 420.929688 C 284.617188 421.460938 284.175781 421.859375 283.636719 421.914062 L 252.886719 424.867188 L 225.78125 425.304688 C 220.324219 425.390625 216.191406 420.402344 217.296875 415.0625 L 217.675781 413.238281 C 221.246094 396.007812 227.042969 379.3125 234.921875 363.574219 L 238.269531 356.882812 C 238.597656 356.226562 239.421875 356.007812 240.03125 356.414062 L 254.734375 366.179688 C 255.175781 366.472656 255.378906 367.019531 255.230469 367.527344 L 243.90625 407.074219 C 243.738281 407.671875 244.097656 408.289062 244.699219 408.4375 C 251.867188 410.175781 259.1875 411.191406 266.558594 411.46875 L 284.957031 412.167969 C 285.703125 412.199219 286.246094 412.882812 286.109375 413.613281 Z M 286.109375 413.613281 " fill-opacity="1" fill-rule="nonzero"/><path fill="#ffffff" d="M 265.976562 337.160156 C 264.367188 341.867188 260.535156 353.066406 249.464844 351.226562 C 248.222656 351.125 247.046875 350.109375 245.898438 348.363281 L 242.539062 358.085938 L 265.976562 373.898438 L 270.152344 361.722656 C 271.429688 357.996094 271.652344 353.941406 273.074219 350.273438 C 276.980469 340.179688 290.671875 350.703125 285.332031 334.152344 C 285.1875 333.703125 285.296875 333.183594 285.632812 332.855469 L 286.597656 331.921875 C 287.296875 331.242188 286.957031 330.003906 286.136719 329.484375 C 285.46875 329.0625 284.890625 328.527344 284.394531 327.914062 C 282.605469 325.703125 281.859375 322.476562 281.535156 319.914062 C 281.390625 318.765625 279.808594 318.269531 278.996094 319.09375 C 272.632812 325.550781 266.207031 323.765625 261.871094 328.386719 C 256.898438 333.371094 261.363281 334.71875 264.988281 335.363281 C 265.769531 335.503906 266.261719 336.335938 266.003906 337.089844 Z M 265.976562 337.160156 " fill-opacity="1" fill-rule="nonzero"/><path fill="#1b2a1f" d="M 249.816406 352.476562 C 260.929688 354.035156 264.476562 342.742188 265.964844 337.996094 L 265.988281 337.921875 C 266.226562 337.160156 265.851562 335.695312 265.0625 335.578125 C 261.421875 335.027344 256.792969 334.4375 261.636719 329.328125 C 265.851562 324.597656 272.324219 326.214844 278.519531 319.601562 C 279.308594 318.757812 280.90625 319.210938 281.078125 320.355469 C 281.46875 322.910156 282.296875 326.113281 284.140625 328.28125 C 286.445312 313.679688 276.601562 302.417969 264.929688 305.164062 C 250.207031 309.0625 231.351562 318.839844 244.445312 339.917969 C 244.839844 340.554688 244.601562 341.417969 243.917969 341.722656 L 241.320312 342.878906 C 231.039062 345.390625 225.898438 360.335938 223.5625 366.707031 C 210.515625 380.582031 220.921875 392.003906 227.753906 395.976562 C 231.941406 373.859375 245.613281 384.496094 249.816406 352.476562 Z M 249.816406 352.476562 " fill-opacity="1" fill-rule="nonzero"/><path fill="#1b2a1f" d="M 283.988281 326.207031 C 282.921875 324.269531 282.398438 321.878906 282.140625 319.839844 C 282.03125 318.980469 281.390625 318.40625 280.703125 318.183594 C 280.015625 317.964844 279.164062 318.058594 278.5625 318.667969 C 275.488281 321.789062 272.40625 322.917969 269.488281 323.847656 C 269.253906 323.921875 269.023438 323.996094 268.789062 324.070312 C 266.136719 324.902344 263.546875 325.71875 261.433594 327.964844 C 260.167969 329.234375 259.425781 330.34375 259.164062 331.332031 C 258.882812 332.371094 259.144531 333.242188 259.753906 333.910156 C 260.332031 334.542969 261.1875 334.96875 262.070312 335.277344 C 262.96875 335.585938 263.964844 335.800781 264.878906 335.960938 C 265.292969 336.035156 265.5625 336.488281 265.425781 336.890625 L 265.402344 336.964844 C 264.59375 339.328125 263.261719 343.203125 260.792969 346.269531 C 258.355469 349.296875 254.832031 351.503906 249.5625 350.625 L 249.539062 350.621094 L 249.511719 350.621094 C 248.574219 350.542969 247.539062 349.75 246.410156 348.027344 C 245.625 346.832031 244.847656 345.265625 244.066406 343.375 L 246.132812 342.519531 C 247.191406 342.082031 247.554688 340.804688 247 339.859375 C 243.894531 334.566406 242.519531 330.058594 242.386719 326.230469 C 242.257812 322.417969 243.363281 319.246094 245.289062 316.605469 C 249.167969 311.300781 256.417969 308.089844 263.78125 306.339844 C 269.496094 305.152344 275.082031 306.378906 278.9375 309.921875 C 282.527344 313.226562 284.707031 318.628906 283.988281 326.207031 Z M 285.035156 327.734375 C 286.203125 319.140625 283.925781 312.859375 279.761719 309.027344 C 275.5625 305.167969 269.546875 303.894531 263.523438 305.148438 L 263.507812 305.152344 C 256.058594 306.921875 248.449219 310.222656 244.308594 315.890625 C 242.222656 318.742188 241.03125 322.175781 241.171875 326.273438 C 241.3125 330.355469 242.777344 335.0625 245.949219 340.472656 C 246.152344 340.824219 246 341.257812 245.667969 341.394531 L 242.484375 342.714844 L 242.707031 343.269531 C 243.527344 345.316406 244.363281 347.070312 245.226562 348.441406 L 241.808594 358.328125 L 266.296875 374.847656 L 270.726562 361.917969 C 271.339844 360.136719 271.714844 358.285156 272.078125 356.480469 C 272.101562 356.351562 272.128906 356.226562 272.15625 356.097656 C 272.546875 354.15625 272.953125 352.273438 273.640625 350.492188 C 274.550781 348.144531 276 347.023438 277.609375 346.386719 C 278.433594 346.0625 279.300781 345.863281 280.1875 345.699219 C 280.515625 345.636719 280.855469 345.582031 281.195312 345.523438 C 281.742188 345.429688 282.292969 345.335938 282.796875 345.230469 C 284.457031 344.871094 286.070312 344.261719 286.785156 342.457031 C 287.464844 340.742188 287.25 338.113281 285.914062 333.964844 C 285.832031 333.714844 285.902344 333.445312 286.058594 333.292969 L 287.023438 332.355469 C 287.558594 331.839844 287.667969 331.128906 287.53125 330.515625 C 287.398438 329.90625 287.019531 329.324219 286.460938 328.972656 C 285.925781 328.636719 285.457031 328.214844 285.035156 327.734375 Z M 246.089844 349.667969 C 247.070312 350.902344 248.160156 351.71875 249.386719 351.828125 C 255.175781 352.785156 259.097656 350.3125 261.742188 347.03125 C 264.351562 343.789062 265.742188 339.730469 266.542969 337.382812 L 266.578125 337.285156 C 266.957031 336.179688 266.246094 334.96875 265.09375 334.761719 C 264.199219 334.605469 263.277344 334.40625 262.472656 334.128906 C 261.652344 333.84375 261.027344 333.5 260.65625 333.09375 C 260.320312 332.722656 260.167969 332.277344 260.339844 331.644531 C 260.523438 330.960938 261.089844 330.035156 262.304688 328.816406 L 262.308594 328.808594 L 262.316406 328.800781 C 264.203125 326.792969 266.496094 326.070312 269.199219 325.21875 C 269.414062 325.148438 269.636719 325.078125 269.859375 325.007812 C 272.832031 324.058594 276.144531 322.855469 279.429688 319.519531 C 279.644531 319.304688 279.988281 319.234375 280.332031 319.34375 C 280.675781 319.453125 280.894531 319.703125 280.933594 319.992188 C 281.257812 322.574219 282.019531 325.945312 283.921875 328.296875 C 284.453125 328.957031 285.078125 329.539062 285.8125 330 C 286.074219 330.167969 286.273438 330.464844 286.34375 330.773438 C 286.410156 331.078125 286.339844 331.324219 286.175781 331.484375 L 285.210938 332.417969 C 284.691406 332.921875 284.546875 333.691406 284.753906 334.335938 C 286.085938 338.46875 286.160156 340.726562 285.652344 342.007812 C 285.179688 343.203125 284.128906 343.695312 282.542969 344.039062 C 282.054688 344.144531 281.5625 344.226562 281.039062 344.316406 C 280.695312 344.371094 280.339844 344.433594 279.964844 344.503906 C 279.050781 344.671875 278.09375 344.890625 277.164062 345.257812 C 275.273438 346.003906 273.550781 347.351562 272.503906 350.050781 C 271.773438 351.941406 271.355469 353.921875 270.960938 355.855469 C 270.9375 355.980469 270.910156 356.101562 270.886719 356.222656 C 270.519531 358.046875 270.160156 359.820312 269.574219 361.523438 L 265.660156 372.953125 L 243.265625 357.84375 Z M 246.089844 349.667969 " fill-opacity="1" fill-rule="evenodd"/><path fill="#1b2a1f" d="M 234.375 363.300781 L 238.339844 355.378906 L 239.429688 355.921875 L 235.464844 363.847656 C 227.613281 379.539062 221.832031 396.183594 218.273438 413.363281 L 217.859375 415.355469 C 216.84375 420.261719 220.59375 424.867188 225.609375 424.867188 L 237.726562 424.867188 C 251.714844 424.867188 265.601562 422.445312 278.765625 417.710938 L 288.292969 414.285156 C 288.5625 414.1875 288.726562 413.917969 288.691406 413.636719 L 286.5625 396.609375 C 286.515625 396.226562 286.128906 395.984375 285.765625 396.105469 L 278.902344 398.394531 C 268.59375 401.824219 257.796875 403.578125 246.929688 403.578125 C 245.851562 403.578125 245.078125 402.535156 245.394531 401.503906 L 249.261719 388.929688 L 250.425781 389.285156 L 246.558594 401.859375 C 246.484375 402.109375 246.667969 402.359375 246.929688 402.359375 C 257.664062 402.359375 268.332031 400.632812 278.519531 397.238281 L 285.378906 394.953125 C 286.472656 394.589844 287.628906 395.316406 287.769531 396.457031 L 289.902344 413.484375 C 290.007812 414.332031 289.511719 415.140625 288.707031 415.429688 L 279.175781 418.855469 C 265.882812 423.636719 251.855469 426.082031 237.726562 426.082031 L 225.609375 426.082031 C 219.820312 426.082031 215.492188 420.773438 216.667969 415.109375 L 217.082031 413.117188 C 220.660156 395.835938 226.476562 379.089844 234.375 363.300781 Z M 234.375 363.300781 " fill-opacity="1" fill-rule="evenodd"/><path fill="#c7e0e3" d="M 401.714844 42.246094 C 401.714844 41.574219 402.261719 41.03125 402.933594 41.03125 L 493.410156 41.03125 C 494.082031 41.03125 494.625 41.574219 494.625 42.246094 L 494.625 55.523438 C 494.625 56.195312 494.082031 56.742188 493.410156 56.742188 L 402.933594 56.742188 C 402.261719 56.742188 401.714844 56.195312 401.714844 55.523438 Z M 401.714844 42.246094 " fill-opacity="1" fill-rule="nonzero"/><g clip-path="url(#8458c253ff)"><path fill="#1b2a1f" d="M 401.105469 42.246094 C 401.105469 41.238281 401.925781 40.421875 402.933594 40.421875 L 493.410156 40.421875 C 494.417969 40.421875 495.234375 41.238281 495.234375 42.246094 L 495.234375 55.523438 C 495.234375 56.53125 494.417969 57.347656 493.410156 57.347656 L 402.933594 57.347656 C 401.925781 57.347656 401.105469 56.53125 401.105469 55.523438 Z M 402.933594 41.640625 C 402.597656 41.640625 402.324219 41.910156 402.324219 42.246094 L 402.324219 55.523438 C 402.324219 55.859375 402.597656 56.132812 402.933594 56.132812 L 493.410156 56.132812 C 493.746094 56.132812 494.019531 55.859375 494.019531 55.523438 L 494.019531 42.246094 C 494.019531 41.910156 493.746094 41.640625 493.410156 41.640625 Z M 402.933594 41.640625 " fill-opacity="1" fill-rule="evenodd"/></g><path fill="#c7e0e3" d="M 294.511719 62.242188 C 294.511719 61.570312 295.054688 61.023438 295.726562 61.023438 L 604.066406 61.023438 C 604.738281 61.023438 605.285156 61.570312 605.285156 62.242188 L 605.285156 302.597656 C 605.285156 303.269531 604.738281 303.816406 604.066406 303.816406 L 295.726562 303.816406 C 295.054688 303.816406 294.511719 303.269531 294.511719 302.597656 Z M 294.511719 62.242188 " fill-opacity="1" fill-rule="nonzero"/><path fill="#1b2a1f" d="M 293.902344 62.242188 C 293.902344 61.234375 294.71875 60.417969 295.726562 60.417969 L 604.066406 60.417969 C 605.074219 60.417969 605.894531 61.234375 605.894531 62.242188 L 605.894531 302.597656 C 605.894531 303.605469 605.074219 304.425781 604.066406 304.425781 L 295.726562 304.425781 C 294.71875 304.425781 293.902344 303.605469 293.902344 302.597656 Z M 295.726562 61.632812 C 295.390625 61.632812 295.121094 61.90625 295.121094 62.242188 L 295.121094 302.597656 C 295.121094 302.933594 295.390625 303.207031 295.726562 303.207031 L 604.066406 303.207031 C 604.402344 303.207031 604.675781 302.933594 604.675781 302.597656 L 604.675781 62.242188 C 604.675781 61.90625 604.402344 61.632812 604.066406 61.632812 Z M 295.726562 61.632812 " fill-opacity="1" fill-rule="evenodd"/><path fill="#ffffff" d="M 301.65625 70.808594 C 301.65625 70.136719 302.203125 69.59375 302.875 69.59375 L 594.898438 69.59375 C 595.570312 69.59375 596.113281 70.136719 596.113281 70.808594 L 596.113281 291.171875 C 596.113281 291.84375 595.570312 292.390625 594.898438 292.390625 L 302.875 292.390625 C 302.203125 292.390625 301.65625 291.84375 301.65625 291.171875 Z M 301.65625 70.808594 " fill-opacity="1" fill-rule="nonzero"/><path fill="#1b2a1f" d="M 301.046875 70.808594 C 301.046875 69.800781 301.867188 68.984375 302.875 68.984375 L 594.898438 68.984375 C 595.90625 68.984375 596.722656 69.800781 596.722656 70.808594 L 596.722656 291.171875 C 596.722656 292.179688 595.90625 292.996094 594.898438 292.996094 L 302.875 292.996094 C 301.867188 292.996094 301.046875 292.179688 301.046875 291.171875 Z M 302.875 70.203125 C 302.539062 70.203125 302.265625 70.472656 302.265625 70.808594 L 302.265625 291.171875 C 302.265625 291.511719 302.539062 291.78125 302.875 291.78125 L 594.898438 291.78125 C 595.234375 291.78125 595.503906 291.511719 595.503906 291.171875 L 595.503906 70.808594 C 595.503906 70.472656 595.234375 70.203125 594.898438 70.203125 Z M 302.875 70.203125 " fill-opacity="1" fill-rule="evenodd"/><path fill="#c7e0e3" d="M 344.101562 143.160156 L 380.46875 143.160156 L 380.46875 272.394531 L 344.101562 272.394531 Z M 344.101562 143.160156 " fill-opacity="1" fill-rule="nonzero"/><path fill="#1b2a1f" d="M 343.492188 142.550781 L 381.078125 142.550781 L 381.078125 273.003906 L 343.492188 273.003906 Z M 344.710938 143.769531 L 344.710938 271.789062 L 379.859375 271.789062 L 379.859375 143.769531 Z M 344.710938 143.769531 " fill-opacity="1" fill-rule="evenodd"/><path fill="#78abfb" d="M 405.265625 98.566406 L 441.632812 98.566406 L 441.632812 272.394531 L 405.265625 272.394531 Z M 405.265625 98.566406 " fill-opacity="1" fill-rule="nonzero"/><path fill="#1b2a1f" d="M 404.65625 97.957031 L 442.242188 97.957031 L 442.242188 273.003906 L 404.65625 273.003906 Z M 405.875 99.171875 L 405.875 271.785156 L 441.023438 271.785156 L 441.023438 99.171875 Z M 405.875 99.171875 " fill-opacity="1" fill-rule="evenodd"/><path fill="#fadd81" d="M 466.429688 176.191406 L 502.796875 176.191406 L 502.792969 272.25 L 466.429688 272.25 Z M 466.429688 176.191406 " fill-opacity="1" fill-rule="nonzero"/><path fill="#1b2a1f" d="M 465.820312 175.585938 L 503.40625 175.585938 L 503.402344 272.859375 L 465.820312 272.859375 Z M 467.039062 176.800781 L 467.039062 271.640625 L 502.1875 271.640625 L 502.1875 176.800781 Z M 467.039062 176.800781 " fill-opacity="1" fill-rule="evenodd"/><path fill="#78abfb" d="M 503.203125 119.765625 C 503.203125 138.007812 518.003906 152.796875 536.265625 152.796875 L 536.265625 86.730469 C 518.003906 86.730469 503.203125 101.519531 503.203125 119.765625 Z M 503.203125 119.765625 " fill-opacity="1" fill-rule="nonzero"/><path fill="#fadd81" d="M 536.265625 86.730469 L 536.265625 119.765625 L 562.074219 99.117188 C 556.015625 91.566406 546.707031 86.730469 536.265625 86.730469 Z M 536.265625 86.730469 " fill-opacity="1" fill-rule="nonzero"/><path fill="#c7e0e3" d="M 536.265625 152.796875 C 554.523438 152.796875 569.324219 138.007812 569.324219 119.765625 C 569.324219 111.953125 566.609375 104.773438 562.074219 99.121094 L 536.265625 119.765625 Z M 536.265625 152.796875 " fill-opacity="1" fill-rule="nonzero"/><path fill="#1b2a1f" d="M 535.65625 87.347656 C 518.015625 87.671875 503.8125 102.058594 503.8125 119.765625 C 503.8125 137.46875 518.015625 151.859375 535.65625 152.183594 Z M 536.875 87.347656 L 536.875 118.5 L 561.214844 99.027344 C 555.378906 92.03125 546.65625 87.527344 536.875 87.347656 Z M 561.976562 99.976562 L 536.875 120.058594 L 536.875 152.183594 C 554.515625 151.859375 568.71875 137.46875 568.71875 119.765625 C 568.71875 112.316406 566.203125 105.453125 561.976562 99.976562 Z M 502.59375 119.765625 C 502.59375 101.183594 517.667969 86.125 536.265625 86.125 C 546.898438 86.125 556.378906 91.050781 562.550781 98.738281 C 567.171875 104.496094 569.933594 111.808594 569.933594 119.765625 C 569.933594 138.34375 554.859375 153.40625 536.265625 153.40625 C 517.667969 153.40625 502.59375 138.34375 502.59375 119.765625 Z M 502.59375 119.765625 " fill-opacity="1" fill-rule="evenodd"/><path fill="#1b2a1f" d="M 328.921875 272.394531 C 328.921875 272.058594 329.195312 271.789062 329.53125 271.789062 L 515.5 271.789062 C 515.835938 271.789062 516.109375 272.058594 516.109375 272.394531 C 516.109375 272.730469 515.835938 273.003906 515.5 273.003906 L 329.53125 273.003906 C 329.195312 273.003906 328.921875 272.730469 328.921875 272.394531 Z M 328.921875 272.394531 " fill-opacity="1" fill-rule="evenodd"/><path fill="#c7e0e3" d="M 364.550781 57.957031 C 364.550781 57.285156 365.097656 56.742188 365.769531 56.742188 L 534.863281 56.742188 C 535.535156 56.742188 536.078125 57.285156 536.078125 57.957031 L 536.078125 71.234375 C 536.078125 71.90625 535.535156 72.449219 534.863281 72.449219 L 365.769531 72.449219 C 365.097656 72.449219 364.550781 71.90625 364.550781 71.234375 Z M 364.550781 57.957031 " fill-opacity="1" fill-rule="nonzero"/><path fill="#1b2a1f" d="M 363.941406 57.957031 C 363.941406 56.949219 364.761719 56.132812 365.769531 56.132812 L 534.863281 56.132812 C 535.871094 56.132812 536.6875 56.949219 536.6875 57.957031 L 536.6875 71.234375 C 536.6875 72.242188 535.871094 73.058594 534.863281 73.058594 L 365.769531 73.058594 C 364.761719 73.058594 363.941406 72.242188 363.941406 71.234375 Z M 365.769531 57.347656 C 365.433594 57.347656 365.160156 57.621094 365.160156 57.957031 L 365.160156 71.234375 C 365.160156 71.570312 365.433594 71.84375 365.769531 71.84375 L 534.863281 71.84375 C 535.199219 71.84375 535.472656 71.570312 535.472656 71.234375 L 535.472656 57.957031 C 535.472656 57.621094 535.199219 57.347656 534.863281 57.347656 Z M 365.769531 57.347656 " fill-opacity="1" fill-rule="evenodd"/><path fill="#ffffff" d="M 549.109375 279.765625 C 543.082031 286.199219 550.03125 291.175781 552.789062 293.839844 C 552.953125 293.996094 553.152344 294.125 553.382812 294.121094 C 556.0625 294.078125 560.074219 286.636719 562.453125 281.507812 C 562.648438 281.085938 562.535156 280.585938 562.183594 280.28125 L 544.453125 264.96875 C 543.386719 264.050781 541.789062 264.121094 540.8125 265.132812 C 539.875 266.105469 539.820312 267.625 540.683594 268.664062 L 549.148438 278.84375 C 549.371094 279.113281 549.347656 279.511719 549.109375 279.765625 Z M 549.109375 279.765625 " fill-opacity="1" fill-rule="nonzero"/><path fill="#1b2a1f" d="M 544.054688 265.429688 C 543.234375 264.71875 542.003906 264.777344 541.25 265.554688 C 540.527344 266.304688 540.488281 267.476562 541.148438 268.273438 L 549.617188 278.457031 C 550.050781 278.976562 549.984375 279.71875 549.554688 280.179688 C 548.113281 281.71875 547.496094 283.117188 547.359375 284.371094 C 547.222656 285.625 547.566406 286.804688 548.1875 287.921875 C 548.8125 289.039062 549.707031 290.066406 550.632812 290.992188 C 551.097656 291.453125 551.5625 291.882812 552.003906 292.285156 C 552.085938 292.359375 552.164062 292.429688 552.242188 292.5 C 552.59375 292.820312 552.925781 293.125 553.214844 293.402344 C 553.265625 293.453125 553.3125 293.484375 553.339844 293.5 C 553.359375 293.507812 553.371094 293.511719 553.371094 293.511719 C 553.789062 293.503906 554.394531 293.1875 555.167969 292.421875 C 555.914062 291.679688 556.714844 290.625 557.519531 289.390625 C 559.132812 286.917969 560.714844 283.804688 561.898438 281.253906 C 561.980469 281.078125 561.9375 280.871094 561.785156 280.742188 Z M 553.390625 294.730469 C 554.316406 294.714844 555.21875 294.085938 556.023438 293.285156 C 556.859375 292.457031 557.714844 291.324219 558.542969 290.054688 C 560.199219 287.511719 561.8125 284.339844 563.003906 281.765625 C 563.316406 281.089844 563.136719 280.300781 562.582031 279.820312 L 544.847656 264.507812 C 543.539062 263.378906 541.574219 263.46875 540.375 264.710938 C 539.222656 265.90625 539.152344 267.773438 540.214844 269.050781 L 548.683594 279.234375 C 548.6875 279.242188 548.695312 279.253906 548.695312 279.277344 C 548.695312 279.304688 548.683594 279.328125 548.664062 279.351562 C 547.089844 281.03125 546.320312 282.667969 546.148438 284.238281 C 545.980469 285.8125 546.417969 287.246094 547.125 288.511719 C 547.828125 289.773438 548.8125 290.894531 549.773438 291.851562 C 550.257812 292.332031 550.738281 292.777344 551.183594 293.183594 C 551.265625 293.257812 551.347656 293.332031 551.429688 293.40625 C 551.777344 293.722656 552.09375 294.011719 552.367188 294.277344 C 552.574219 294.476562 552.925781 294.734375 553.390625 294.730469 Z M 553.390625 294.730469 " fill-opacity="1" fill-rule="evenodd"/><path fill="#1b2a1f" d="M 632.792969 280.699219 L 630.355469 273.402344 C 624.90625 273.984375 621.160156 275.238281 618.683594 279.207031 C 617.648438 280.859375 616.800781 282.636719 615.652344 284.210938 C 613.507812 287.160156 610.84375 289.6875 607.789062 291.679688 L 594.550781 300.300781 C 594.117188 300.585938 593.550781 300.5625 593.144531 300.246094 L 567.042969 280.144531 C 565.632812 279.058594 563.648438 279.148438 562.339844 280.347656 L 550.402344 291.320312 C 549.859375 291.816406 549.878906 292.675781 550.441406 293.148438 L 586.199219 323.203125 C 587.226562 324.066406 588.3125 324.871094 589.542969 325.390625 C 599.738281 329.6875 609.015625 321.179688 621.425781 314.339844 C 621.84375 314.769531 622.324219 315.125 622.871094 315.398438 C 623.351562 315.636719 623.707031 316.097656 623.707031 316.628906 L 623.707031 341.890625 L 680.28125 328.714844 C 680.28125 325.34375 672.691406 316.882812 670.902344 300.5 C 668.871094 281.894531 673.46875 265.734375 654.738281 266.105469 C 651.738281 266.164062 648.980469 267.546875 646.648438 269.441406 Z M 632.792969 280.699219 " fill-opacity="1" fill-rule="nonzero"/><g clip-path="url(#444a5423a3)"><path fill="#1b2a1f" d="M 682.484375 309.90625 L 649.742188 286.539062 C 649.421875 286.308594 649.230469 285.941406 649.230469 285.546875 L 649.230469 268.414062 C 649.230469 268.101562 649.355469 267.789062 649.585938 267.578125 C 660.535156 257.476562 692.09375 286.917969 705.597656 302.820312 C 709.378906 307.273438 708.984375 313.472656 705.359375 318.054688 L 682.300781 347.207031 C 681.867188 347.757812 681.054688 347.824219 680.535156 347.359375 L 670.617188 338.492188 C 670.210938 338.132812 670.097656 337.542969 670.335938 337.054688 L 682.871094 311.433594 C 683.132812 310.898438 682.96875 310.253906 682.484375 309.90625 Z M 682.484375 309.90625 " fill-opacity="1" fill-rule="nonzero"/></g><g clip-path="url(#2d6a873ef1)"><path fill="#1b2a1f" d="M 676.996094 274.960938 C 687.988281 283.078125 699.289062 294.449219 706.0625 302.429688 C 710.058594 307.136719 709.609375 313.664062 705.835938 318.429688 L 682.777344 347.585938 C 682.125 348.410156 680.910156 348.511719 680.128906 347.8125 L 670.210938 338.949219 C 669.601562 338.402344 669.429688 337.519531 669.789062 336.785156 L 682.324219 311.164062 C 682.457031 310.898438 682.375 310.574219 682.132812 310.402344 L 649.386719 287.035156 C 648.90625 286.691406 648.621094 286.136719 648.621094 285.546875 L 648.621094 268.414062 C 648.621094 267.945312 648.808594 267.46875 649.171875 267.128906 C 652.160156 264.375 656.472656 264.398438 661.253906 266.011719 C 666.050781 267.628906 671.503906 270.902344 676.996094 274.960938 Z M 660.863281 267.164062 C 656.222656 265.597656 652.484375 265.730469 650 268.023438 C 649.902344 268.109375 649.839844 268.253906 649.839844 268.414062 L 649.839844 285.546875 C 649.839844 285.746094 649.933594 285.929688 650.09375 286.042969 L 682.839844 309.414062 C 683.566406 309.929688 683.808594 310.898438 683.417969 311.699219 L 670.882812 337.320312 C 670.761719 337.566406 670.820312 337.859375 671.023438 338.042969 L 680.9375 346.90625 C 681.199219 347.140625 681.605469 347.105469 681.824219 346.828125 L 704.882812 317.675781 C 708.355469 313.285156 708.695312 307.410156 705.132812 303.214844 C 698.40625 295.289062 687.171875 283.988281 676.273438 275.9375 C 670.816406 271.90625 665.484375 268.71875 660.863281 267.164062 Z M 660.863281 267.164062 " fill-opacity="1" fill-rule="evenodd"/></g><path fill="#c7e0e3" d="M 680.28125 328.148438 L 623.707031 341.886719 C 620.808594 352.023438 615.589844 364.832031 609.957031 377.777344 C 604.367188 390.636719 598.375 403.628906 593.851562 414.277344 C 589.539062 424.429688 586.570312 432.449219 586.570312 436.175781 C 586.570312 467.199219 596.3125 518.902344 593.265625 527.417969 L 624.925781 527.417969 C 626.09375 464.40625 610.3125 459.898438 623.097656 433.132812 L 648.128906 385.054688 C 648.265625 384.792969 648.851562 384.480469 649.234375 384.257812 C 649.222656 384.308594 649.21875 384.363281 649.21875 384.40625 C 647.890625 416.121094 653.167969 447.203125 647.910156 477 C 647.269531 480.605469 646.84375 484.253906 646.84375 487.914062 L 646.84375 527.417969 L 672.414062 527.417969 L 684.589844 374.734375 C 687.023438 360.136719 686.976562 338.488281 680.28125 328.148438 Z M 680.28125 328.148438 " fill-opacity="1" fill-rule="nonzero"/><path fill="#ffffff" d="M 672.414062 527.417969 L 651.105469 527.417969 C 651.492188 533.613281 650.894531 544.089844 650.40625 551.140625 C 650.128906 555.175781 649.886719 558.089844 649.886719 558.441406 L 684.589844 558.441406 L 684.589844 548.101562 C 684.589844 542.625 671.804688 540.800781 672.414062 527.417969 Z M 672.414062 527.417969 " fill-opacity="1" fill-rule="nonzero"/><path fill="#ffffff" d="M 566.476562 558.441406 L 617.621094 558.441406 C 617.664062 556.382812 617.699219 553.859375 617.714844 551.140625 C 617.769531 541.289062 617.546875 528.945312 616.402344 527.417969 L 593.265625 527.417969 C 588.632812 545.945312 571.792969 540.960938 567.457031 551.140625 C 566.664062 552.996094 566.289062 555.351562 566.476562 558.441406 Z M 566.476562 558.441406 " fill-opacity="1" fill-rule="nonzero"/><g clip-path="url(#b758f31f45)"><path fill="#1b2a1f" d="M 670.820312 288.953125 C 670.945312 292.589844 671.074219 296.457031 671.507812 300.4375 C 672.390625 308.542969 674.710938 314.6875 676.8125 319.234375 C 677.496094 320.703125 678.144531 321.992188 678.722656 323.132812 C 679.042969 323.773438 679.34375 324.367188 679.613281 324.921875 C 679.984375 325.6875 680.300781 326.382812 680.523438 327 C 680.71875 327.539062 680.855469 328.054688 680.882812 328.527344 C 684.257812 333.828125 685.925781 341.746094 686.46875 350.089844 C 687.015625 358.519531 686.417969 367.472656 685.195312 374.8125 L 673.019531 527.457031 C 672.730469 533.890625 675.636719 537.53125 678.679688 540.273438 C 679.382812 540.910156 680.089844 541.492188 680.773438 542.054688 L 680.964844 542.210938 C 681.699219 542.820312 682.410156 543.410156 683.023438 544.007812 C 684.242188 545.183594 685.199219 546.472656 685.199219 548.101562 L 685.199219 559.050781 L 649.277344 559.050781 L 649.277344 558.441406 C 649.277344 558.238281 649.339844 557.386719 649.433594 556.140625 L 649.445312 555.976562 C 649.542969 554.714844 649.664062 553.035156 649.800781 551.101562 C 650.273438 544.253906 650.84375 534.234375 650.527344 528.027344 L 646.234375 528.027344 L 646.234375 487.914062 C 646.234375 484.207031 646.667969 480.523438 647.308594 476.894531 C 649.9375 462.015625 649.925781 446.800781 649.425781 431.296875 C 649.3125 427.871094 649.179688 424.429688 649.042969 420.980469 C 648.601562 409.683594 648.152344 398.25 648.523438 386.734375 L 623.640625 433.40625 C 620.472656 440.046875 619.015625 445.195312 618.597656 450.175781 C 618.175781 455.171875 618.792969 460.035156 619.820312 466.125 C 620.042969 467.457031 620.285156 468.847656 620.542969 470.308594 C 622.628906 482.203125 625.535156 498.761719 625.535156 527.421875 L 625.535156 528.027344 L 617.304688 528.027344 C 617.332031 528.128906 617.359375 528.234375 617.382812 528.335938 C 617.503906 528.871094 617.609375 529.539062 617.703125 530.3125 C 617.886719 531.863281 618.019531 533.871094 618.117188 536.132812 C 618.308594 540.65625 618.351562 546.214844 618.324219 551.148438 C 618.308594 553.867188 618.273438 556.394531 618.226562 558.457031 L 618.214844 559.050781 L 565.90625 559.050781 L 565.871094 558.480469 C 565.679688 555.324219 566.058594 552.867188 566.894531 550.90625 C 568.050781 548.195312 570.039062 546.507812 572.371094 545.214844 C 573.898438 544.367188 575.632812 543.664062 577.386719 542.949219 C 578.261719 542.59375 579.140625 542.234375 580.003906 541.855469 C 582.644531 540.695312 585.238281 539.300781 587.457031 537.082031 C 589.671875 534.867188 591.542969 531.808594 592.675781 527.273438 L 592.683594 527.242188 L 592.691406 527.214844 C 593.035156 526.253906 593.21875 524.605469 593.242188 522.320312 C 593.269531 520.054688 593.140625 517.234375 592.898438 513.976562 C 592.414062 507.464844 591.484375 499.246094 590.453125 490.304688 C 590.394531 489.765625 590.328125 489.222656 590.265625 488.675781 C 588.257812 471.203125 585.960938 451.257812 585.960938 436.175781 C 585.960938 434.199219 586.738281 431.175781 588.019531 427.441406 C 589.308594 423.679688 591.132812 419.121094 593.292969 414.039062 C 593.335938 413.933594 593.382812 413.824219 593.429688 413.71875 L 593.429688 413.667969 L 593.449219 413.667969 C 595.917969 407.863281 598.824219 401.363281 601.851562 394.582031 C 604.339844 389.015625 606.914062 383.257812 609.398438 377.535156 C 615.011719 364.625 620.207031 351.882812 623.097656 341.804688 L 623.097656 316.628906 C 623.097656 316.382812 622.925781 316.105469 622.597656 315.941406 C 622.128906 315.710938 621.707031 315.421875 621.328125 315.085938 C 618.859375 316.460938 616.511719 317.898438 614.246094 319.289062 C 613.90625 319.496094 613.570312 319.699219 613.234375 319.90625 C 610.421875 321.625 607.722656 323.242188 605.085938 324.507812 C 599.8125 327.042969 594.695312 328.222656 589.308594 325.949219 C 587.992188 325.394531 586.847656 324.542969 585.808594 323.667969 L 550.105469 293.660156 C 549.234375 292.925781 549.238281 291.585938 550.109375 290.859375 L 562.84375 280.257812 C 563.511719 279.707031 564.472656 279.695312 565.152344 280.234375 L 593.441406 302.730469 C 593.664062 302.90625 593.980469 302.90625 594.203125 302.722656 L 609.730469 290.070312 C 611.214844 288.859375 612.535156 287.464844 613.660156 285.914062 C 614.371094 284.941406 614.96875 283.894531 615.589844 282.8125 C 615.882812 282.300781 616.179688 281.78125 616.492188 281.257812 C 617.453125 279.671875 618.546875 278.109375 620.097656 276.960938 C 622.636719 275.074219 626.335938 273.828125 630.292969 273.40625 L 630.964844 273.332031 L 630.964844 281.832031 L 646.296875 269.019531 C 648.664062 267.042969 651.542969 265.5625 654.726562 265.496094 C 659.492188 265.402344 662.875 266.359375 665.257812 268.230469 C 667.644531 270.101562 668.9375 272.820312 669.675781 276.050781 C 670.414062 279.277344 670.613281 283.082031 670.761719 287.203125 C 670.78125 287.78125 670.800781 288.363281 670.820312 288.953125 Z M 620.476562 314.171875 C 618.074219 315.515625 615.792969 316.914062 613.609375 318.25 C 613.269531 318.457031 612.933594 318.664062 612.597656 318.867188 C 609.78125 320.589844 607.132812 322.175781 604.558594 323.410156 C 599.421875 325.882812 594.699219 326.902344 589.78125 324.828125 C 588.632812 324.347656 587.601562 323.585938 586.59375 322.738281 L 550.890625 292.726562 C 550.597656 292.484375 550.597656 292.039062 550.890625 291.792969 L 563.625 281.191406 C 563.847656 281.007812 564.167969 281.003906 564.394531 281.183594 L 592.679688 303.679688 C 593.351562 304.214844 594.308594 304.210938 594.972656 303.667969 L 610.5 291.011719 C 612.0625 289.738281 613.457031 288.265625 614.644531 286.632812 C 615.394531 285.601562 616.050781 284.457031 616.6875 283.34375 C 616.972656 282.847656 617.253906 282.355469 617.535156 281.886719 C 618.472656 280.332031 619.46875 278.941406 620.820312 277.9375 C 623.003906 276.316406 626.203125 275.164062 629.75 274.695312 L 629.75 284.433594 L 647.078125 269.953125 C 649.316406 268.085938 651.9375 266.769531 654.75 266.714844 C 659.355469 266.625 662.421875 267.550781 664.507812 269.183594 C 666.589844 270.820312 667.785156 273.234375 668.488281 276.324219 C 669.199219 279.417969 669.398438 283.117188 669.542969 287.246094 C 669.566406 287.820312 669.585938 288.398438 669.605469 288.988281 C 669.726562 292.625 669.855469 296.539062 670.296875 300.566406 C 671.199219 308.84375 673.570312 315.121094 675.710938 319.742188 C 676.394531 321.226562 677.070312 322.558594 677.652344 323.71875 C 677.972656 324.347656 678.265625 324.929688 678.519531 325.453125 C 678.886719 326.210938 679.179688 326.855469 679.378906 327.410156 C 679.492188 327.730469 679.570312 328.007812 679.621094 328.242188 L 624.316406 341.121094 L 624.316406 316.628906 C 624.316406 315.8125 623.773438 315.167969 623.144531 314.855469 C 621.652344 314.109375 620.667969 312.621094 620.085938 310.574219 C 619.503906 308.53125 619.351562 306.007812 619.46875 303.351562 C 619.695312 298.039062 620.984375 292.328125 621.859375 289.125 L 620.683594 288.804688 C 619.800781 292.046875 618.484375 297.855469 618.25 303.296875 C 618.132812 306.019531 618.285156 308.683594 618.917969 310.90625 C 619.265625 312.136719 619.769531 313.253906 620.476562 314.171875 Z M 624.195312 342.398438 C 621.265625 352.523438 616.082031 365.21875 610.515625 378.019531 C 608.015625 383.769531 605.441406 389.535156 602.957031 395.101562 C 599.867188 402.007812 596.917969 408.617188 594.414062 414.515625 C 592.257812 419.589844 590.445312 424.117188 589.171875 427.835938 C 587.886719 431.578125 587.179688 434.425781 587.179688 436.175781 C 587.179688 451.1875 589.464844 471.070312 591.480469 488.578125 C 591.542969 489.109375 591.601562 489.640625 591.664062 490.167969 C 592.691406 499.097656 593.625 507.34375 594.113281 513.886719 C 594.355469 517.160156 594.488281 520.019531 594.460938 522.332031 C 594.441406 524.148438 594.324219 525.675781 594.070312 526.8125 L 624.316406 526.8125 C 624.273438 498.636719 621.410156 482.308594 619.34375 470.515625 C 619.085938 469.054688 618.84375 467.664062 618.617188 466.328125 C 617.589844 460.222656 616.949219 455.230469 617.382812 450.074219 C 617.820312 444.90625 619.332031 439.609375 622.550781 432.871094 L 622.554688 432.859375 L 648.695312 383.824219 L 649.839844 384.136719 C 649.304688 396.496094 649.785156 408.75 650.257812 420.902344 C 650.394531 424.363281 650.53125 427.816406 650.640625 431.257812 C 651.140625 446.773438 651.15625 462.09375 648.507812 477.105469 C 647.875 480.691406 647.453125 484.300781 647.453125 487.914062 L 647.453125 526.8125 L 671.851562 526.8125 L 683.984375 374.664062 L 683.988281 374.636719 C 685.199219 367.378906 685.792969 358.503906 685.253906 350.167969 C 684.722656 342.007812 683.109375 334.445312 679.996094 329.40625 Z M 671.785156 528.027344 L 651.75 528.027344 C 652.050781 534.128906 651.519531 543.75 651.058594 550.535156 L 683.980469 550.535156 L 683.980469 548.101562 C 683.980469 546.992188 683.339844 546.003906 682.175781 544.878906 C 681.601562 544.324219 680.929688 543.761719 680.1875 543.148438 L 679.996094 542.992188 C 679.316406 542.429688 678.589844 541.832031 677.863281 541.175781 C 674.769531 538.386719 671.6875 534.578125 671.785156 528.027344 Z M 683.980469 551.753906 L 650.972656 551.753906 C 650.855469 553.453125 650.746094 554.929688 650.660156 556.066406 L 650.648438 556.21875 C 650.597656 556.910156 650.558594 557.453125 650.53125 557.835938 L 683.980469 557.835938 Z M 593.738281 528.027344 L 616.03125 528.027344 C 616.082031 528.164062 616.136719 528.351562 616.195312 528.609375 C 616.304688 529.082031 616.402344 529.703125 616.492188 530.457031 C 616.671875 531.960938 616.804688 533.9375 616.898438 536.183594 C 617.082031 540.496094 617.128906 545.769531 617.109375 550.535156 L 568.425781 550.535156 C 569.46875 548.632812 571.042969 547.34375 572.960938 546.277344 C 574.429688 545.464844 576.042969 544.808594 577.75 544.113281 C 578.640625 543.753906 579.558594 543.378906 580.496094 542.96875 C 583.1875 541.785156 585.941406 540.316406 588.316406 537.941406 C 590.625 535.636719 592.542969 532.507812 593.738281 528.027344 Z M 567.867188 551.753906 C 567.269531 553.324219 566.960938 555.296875 567.058594 557.835938 L 617.023438 557.835938 C 617.058594 556.058594 617.085938 553.976562 617.101562 551.753906 Z M 567.867188 551.753906 " fill-opacity="1" fill-rule="evenodd"/></g><path fill="#ffffff" d="M 657.433594 270.378906 L 656.292969 270.441406 C 653.808594 270.578125 651.230469 270.183594 649.957031 268.050781 C 648.292969 265.253906 646.914062 260.9375 646.515625 258.648438 C 647.074219 257.367188 647.363281 256.039062 647.375 254.726562 C 652.621094 254.671875 653.585938 249.972656 652.28125 246.113281 C 651.792969 244.667969 650.167969 244.152344 649.082031 245.226562 C 647.996094 246.300781 646.863281 247.875 645.96875 249.574219 C 645.449219 250.558594 643.753906 250.667969 643.019531 249.824219 C 639.785156 246.101562 634.757812 245.207031 629.730469 233.886719 C 616.808594 242.148438 624.570312 247.929688 621.355469 254.316406 C 620.714844 255.589844 620.0625 256.929688 620.257812 258.339844 C 620.289062 258.546875 620.320312 258.75 620.359375 258.945312 C 620.78125 261.164062 621.761719 262.8125 623.066406 264.019531 C 626.863281 267.527344 633.453125 267.289062 637.386719 266.359375 C 637.675781 270.578125 637.546875 271.339844 627.496094 273.703125 C 639.429688 297.316406 653.898438 281.390625 657.433594 270.378906 Z M 657.433594 270.378906 " fill-opacity="1" fill-rule="nonzero"/><path fill="#c7e0e3" d="M 656.667969 270.699219 L 657.890625 270.632812 L 662.0625 270.402344 C 663.996094 270.292969 665.929688 270.542969 667.769531 271.132812 L 670.109375 271.882812 C 664.066406 260.378906 664.117188 242.652344 650.84375 230 C 650.542969 229.714844 650.402344 229.28125 650.464844 228.871094 C 653.207031 211.039062 636.199219 210.707031 631.417969 224.113281 C 631.300781 224.4375 631.050781 224.71875 630.734375 224.859375 C 611.476562 233.605469 612.535156 248.683594 620.25 259.0625 C 620.683594 261.308594 621.671875 262.980469 623 264.203125 C 623.394531 267.007812 621.613281 271.910156 621.832031 276.441406 C 622.402344 276.0625 622.933594 275.699219 623.4375 275.355469 C 625.535156 273.933594 627.953125 273.121094 630.414062 272.519531 C 637.140625 270.878906 637.789062 270.253906 637.539062 266.570312 C 633.542969 267.511719 626.855469 267.757812 623 264.203125 C 621.671875 262.980469 620.683594 261.308594 620.25 259.0625 C 620.210938 258.851562 620.175781 258.640625 620.144531 258.421875 C 619.953125 257.007812 620.605469 255.667969 621.25 254.398438 C 624.554688 247.910156 616.636719 242.054688 629.777344 233.660156 C 634.894531 245.167969 640.019531 246.042969 643.296875 249.84375 C 644.027344 250.691406 645.714844 250.582031 646.234375 249.597656 C 647.15625 247.84375 648.328125 246.21875 649.453125 245.113281 C 650.542969 244.046875 652.167969 244.5625 652.660156 246.007812 C 654 249.925781 653.027344 254.714844 647.6875 254.773438 C 647.675781 255.785156 647.5 256.804688 647.171875 257.808594 C 646.992188 258.351562 646.878906 258.917969 646.976562 259.484375 C 647.375 261.71875 648.683594 265.722656 650.296875 268.359375 C 651.597656 270.476562 654.1875 270.835938 656.667969 270.699219 Z M 656.667969 270.699219 " fill-opacity="1" fill-rule="nonzero"/><path fill="#1b2a1f" d="M 643.847656 214.175781 C 638.984375 213.488281 633.304688 217.007812 630.84375 223.90625 C 630.78125 224.082031 630.644531 224.234375 630.480469 224.304688 C 620.722656 228.738281 616.003906 234.832031 614.777344 241.234375 C 613.566406 247.566406 615.804688 254.050781 619.679688 259.3125 C 620.128906 261.523438 621.105469 263.222656 622.421875 264.496094 C 622.476562 265.078125 622.441406 265.78125 622.347656 266.589844 C 622.25 267.4375 622.089844 268.367188 621.917969 269.363281 C 621.90625 269.433594 621.894531 269.5 621.882812 269.570312 C 621.515625 271.707031 621.113281 274.128906 621.226562 276.472656 L 621.277344 277.542969 L 622.171875 276.949219 C 622.582031 276.675781 622.96875 276.410156 623.339844 276.15625 C 623.488281 276.054688 623.636719 275.957031 623.78125 275.855469 C 625.789062 274.496094 628.128906 273.703125 630.558594 273.109375 C 632.242188 272.699219 633.570312 272.347656 634.601562 271.988281 C 635.628906 271.632812 636.414062 271.257812 636.984375 270.773438 C 638.210938 269.738281 638.269531 268.363281 638.144531 266.527344 L 638.097656 265.8125 L 637.398438 265.976562 C 635.457031 266.4375 632.851562 266.722656 630.277344 266.464844 C 627.695312 266.207031 625.207031 265.410156 623.410156 263.757812 C 622.1875 262.625 621.257812 261.070312 620.847656 258.949219 C 620.8125 258.75 620.777344 258.546875 620.75 258.335938 C 620.585938 257.144531 621.132812 255.972656 621.792969 254.671875 C 622.6875 252.921875 622.8125 251.21875 622.738281 249.574219 C 622.710938 248.945312 622.652344 248.308594 622.59375 247.6875 C 622.574219 247.503906 622.558594 247.324219 622.542969 247.144531 C 622.472656 246.34375 622.417969 245.554688 622.433594 244.757812 C 622.46875 243.183594 622.796875 241.574219 623.882812 239.855469 C 624.90625 238.230469 626.636719 236.476562 629.515625 234.558594 C 632.007812 239.972656 634.511719 242.980469 636.816406 245.089844 C 637.8125 246.003906 638.769531 246.742188 639.648438 247.425781 C 639.820312 247.554688 639.984375 247.683594 640.148438 247.808594 C 641.164062 248.601562 642.058594 249.339844 642.839844 250.242188 C 643.359375 250.847656 644.175781 251.070312 644.890625 251.011719 C 645.609375 250.957031 646.386719 250.613281 646.773438 249.878906 C 647.671875 248.171875 648.8125 246.597656 649.878906 245.550781 C 650.269531 245.167969 650.71875 245.089844 651.109375 245.203125 C 651.511719 245.320312 651.898438 245.65625 652.082031 246.203125 C 652.722656 248.066406 652.785156 250.078125 652.121094 251.59375 C 651.480469 253.050781 650.132812 254.136719 647.679688 254.164062 L 647.085938 254.171875 L 647.078125 254.765625 C 647.066406 255.710938 646.90625 256.671875 646.59375 257.617188 C 646.402344 258.199219 646.253906 258.878906 646.378906 259.585938 C 646.785156 261.882812 648.117188 265.964844 649.78125 268.675781 C 651.273438 271.109375 654.203125 271.445312 656.703125 271.308594 L 662.097656 271.007812 C 663.953125 270.90625 665.8125 271.144531 667.585938 271.710938 L 671.339844 272.914062 L 670.648438 271.597656 C 669.164062 268.773438 668.046875 265.554688 667 262.085938 C 666.59375 260.746094 666.195312 259.359375 665.789062 257.945312 C 665.152344 255.734375 664.5 253.457031 663.769531 251.183594 C 661.355469 243.695312 658.011719 235.988281 651.265625 229.558594 C 651.113281 229.414062 651.035156 229.183594 651.066406 228.960938 C 651.765625 224.417969 651.21875 220.90625 649.851562 218.425781 C 648.476562 215.929688 646.292969 214.519531 643.847656 214.175781 Z M 623.65625 265.503906 C 625.558594 266.816406 627.878906 267.449219 630.15625 267.675781 C 632.582031 267.917969 635.015625 267.707031 636.96875 267.316406 C 637.007812 268.671875 636.820312 269.320312 636.199219 269.847656 C 635.800781 270.183594 635.179688 270.5 634.203125 270.839844 C 633.230469 271.175781 631.953125 271.519531 630.273438 271.925781 C 627.78125 272.535156 625.28125 273.371094 623.097656 274.851562 C 622.949219 274.953125 622.796875 275.054688 622.648438 275.15625 C 622.574219 275.207031 622.5 275.257812 622.425781 275.308594 C 622.460938 273.460938 622.773438 271.570312 623.082031 269.777344 C 623.09375 269.703125 623.105469 269.632812 623.117188 269.558594 C 623.289062 268.570312 623.453125 267.613281 623.558594 266.730469 C 623.605469 266.3125 623.640625 265.898438 623.65625 265.503906 Z M 619.582031 257.027344 C 616.535156 252.28125 614.957031 246.769531 615.972656 241.460938 C 617.105469 235.546875 621.484375 229.730469 630.984375 225.414062 C 631.457031 225.199219 631.820312 224.792969 631.992188 224.316406 C 634.3125 217.8125 639.53125 214.792969 643.679688 215.378906 C 645.742188 215.671875 647.59375 216.851562 648.785156 219.011719 C 649.984375 221.1875 650.539062 224.40625 649.863281 228.777344 C 649.773438 229.375 649.976562 230.011719 650.425781 230.4375 C 656.953125 236.660156 660.21875 244.144531 662.609375 251.558594 C 663.339844 253.820312 663.980469 256.050781 664.609375 258.242188 C 665.015625 259.660156 665.414062 261.058594 665.832031 262.4375 C 666.734375 265.417969 667.699219 268.269531 668.921875 270.863281 L 667.957031 270.554688 C 666.042969 269.941406 664.035156 269.683594 662.027344 269.792969 L 656.632812 270.089844 C 654.171875 270.226562 651.921875 269.839844 650.820312 268.039062 C 649.25 265.480469 647.964844 261.550781 647.578125 259.375 C 647.503906 258.957031 647.582031 258.503906 647.75 257.996094 C 648.039062 257.128906 648.210938 256.242188 648.273438 255.355469 C 650.824219 255.164062 652.449219 253.878906 653.238281 252.082031 C 654.058594 250.207031 653.9375 247.863281 653.238281 245.808594 C 652.929688 244.914062 652.257812 244.269531 651.449219 244.035156 C 650.632812 243.796875 649.726562 243.996094 649.027344 244.679688 C 647.851562 245.835938 646.640625 247.519531 645.695312 249.3125 C 645.5625 249.566406 645.238281 249.765625 644.796875 249.800781 C 644.359375 249.835938 643.964844 249.6875 643.761719 249.449219 C 642.898438 248.449219 641.921875 247.648438 640.894531 246.851562 C 640.726562 246.71875 640.558594 246.589844 640.386719 246.457031 C 639.507812 245.777344 638.59375 245.070312 637.636719 244.195312 C 635.371094 242.121094 632.859375 239.097656 630.335938 233.414062 L 630.046875 232.769531 L 629.449219 233.148438 C 626.117188 235.277344 624.070312 237.273438 622.851562 239.203125 C 621.625 241.148438 621.257812 242.980469 621.21875 244.730469 C 621.199219 245.59375 621.257812 246.441406 621.328125 247.253906 C 621.347656 247.445312 621.363281 247.632812 621.382812 247.816406 C 621.4375 248.433594 621.492188 249.03125 621.523438 249.628906 C 621.589844 251.167969 621.46875 252.632812 620.707031 254.121094 C 620.273438 254.976562 619.777344 255.964844 619.582031 257.027344 Z M 619.582031 257.027344 " fill-opacity="1" fill-rule="evenodd"/><path fill="#1b2a1f" d="M 331.425781 417.511719 L 331.425781 410.542969 C 331.425781 409.871094 331.972656 409.328125 332.644531 409.328125 L 380.535156 409.328125 C 381.085938 409.328125 381.570312 408.957031 381.710938 408.421875 L 392.679688 366.769531 C 392.816406 366.234375 393.304688 365.863281 393.855469 365.863281 L 447.929688 365.863281 C 448.738281 365.863281 449.320312 366.632812 449.105469 367.40625 L 435.109375 417.28125 C 434.960938 417.808594 434.476562 418.171875 433.925781 418.167969 Z M 331.425781 417.511719 " fill-opacity="1" fill-rule="nonzero"/><path fill="#1b2a1f" d="M 393.855469 366.46875 C 393.578125 366.46875 393.335938 366.65625 393.265625 366.925781 L 382.300781 408.574219 C 382.089844 409.378906 381.363281 409.9375 380.535156 409.9375 L 332.644531 409.9375 C 332.308594 409.9375 332.035156 410.207031 332.035156 410.542969 L 332.035156 416.90625 L 433.929688 417.5625 C 434.207031 417.5625 434.445312 417.382812 434.519531 417.117188 L 448.515625 367.242188 C 448.625 366.855469 448.335938 366.46875 447.929688 366.46875 Z M 392.089844 366.613281 C 392.300781 365.8125 393.027344 365.253906 393.855469 365.253906 L 447.929688 365.253906 C 449.140625 365.253906 450.015625 366.40625 449.691406 367.570312 L 435.695312 417.445312 C 435.472656 418.238281 434.746094 418.78125 433.921875 418.777344 L 330.816406 418.117188 L 330.816406 410.542969 C 330.816406 409.535156 331.636719 408.71875 332.644531 408.71875 L 380.535156 408.71875 C 380.8125 408.71875 381.050781 408.53125 381.121094 408.265625 Z M 392.089844 366.613281 " fill-opacity="1" fill-rule="evenodd"/><path fill="#ffffff" d="M 294.898438 418.175781 L 599.308594 418.175781 C 599.980469 418.175781 600.523438 418.722656 600.523438 419.390625 L 600.523438 427.910156 C 600.523438 428.582031 599.980469 429.125 599.308594 429.125 L 294.898438 429.125 Z M 294.898438 418.175781 " fill-opacity="1" fill-rule="nonzero"/><path fill="#1b2a1f" d="M 294.289062 417.566406 L 599.308594 417.566406 C 600.316406 417.566406 601.132812 418.386719 601.132812 419.390625 L 601.132812 427.910156 C 601.132812 428.914062 600.316406 429.734375 599.308594 429.734375 L 294.289062 429.734375 Z M 295.503906 418.785156 L 295.503906 428.515625 L 599.308594 428.515625 C 599.644531 428.515625 599.917969 428.246094 599.917969 427.910156 L 599.917969 419.390625 C 599.917969 419.058594 599.644531 418.785156 599.308594 418.785156 Z M 295.503906 418.785156 " fill-opacity="1" fill-rule="evenodd"/><path fill="#ffffff" d="M 546.949219 558.691406 C 546.277344 558.691406 545.730469 558.148438 545.730469 557.476562 L 545.730469 429.734375 L 555.472656 429.734375 L 555.472656 557.476562 C 555.472656 558.148438 554.925781 558.691406 554.253906 558.691406 Z M 546.949219 558.691406 " fill-opacity="1" fill-rule="nonzero"/><g clip-path="url(#bb65c9896a)"><path fill="#1b2a1f" d="M 546.949219 559.300781 C 545.941406 559.300781 545.121094 558.484375 545.121094 557.476562 L 545.121094 428.515625 L 556.082031 428.515625 L 556.082031 557.476562 C 556.082031 558.484375 555.261719 559.300781 554.253906 559.300781 Z M 546.339844 557.476562 C 546.339844 557.8125 546.613281 558.085938 546.949219 558.085938 L 554.253906 558.085938 C 554.589844 558.085938 554.863281 557.8125 554.863281 557.476562 L 554.863281 429.734375 L 546.339844 429.734375 Z M 546.339844 557.476562 " fill-opacity="1" fill-rule="evenodd"/></g><path fill="#ffffff" d="M 325.335938 558.691406 C 324.664062 558.691406 324.121094 558.148438 324.121094 557.476562 L 324.121094 428.515625 L 333.859375 428.515625 L 333.859375 557.476562 C 333.859375 558.148438 333.316406 558.691406 332.644531 558.691406 Z M 325.335938 558.691406 " fill-opacity="1" fill-rule="nonzero"/><g clip-path="url(#74c1c43874)"><path fill="#1b2a1f" d="M 325.335938 559.300781 C 324.328125 559.300781 323.511719 558.484375 323.511719 557.476562 L 323.511719 428.515625 L 334.46875 428.515625 L 334.46875 557.476562 C 334.46875 558.484375 333.652344 559.300781 332.644531 559.300781 Z M 324.730469 557.476562 C 324.730469 557.8125 325 558.085938 325.335938 558.085938 L 332.644531 558.085938 C 332.980469 558.085938 333.253906 557.8125 333.253906 557.476562 L 333.253906 429.734375 L 324.730469 429.734375 Z M 324.730469 557.476562 " fill-opacity="1" fill-rule="evenodd"/></g></svg>